Ropa Sans -Regular.ufo
<glyph name="dollar" format="1">
  <advance width="441"/>
  <unicode hex="0024"/>
  <outline>
    <contour>
      <point x="192" y="695" type="line"/>
      <point x="192" y="610" type="line"/>
      <point x="83" y="598"/>
      <point x="40" y="543"/>
      <point x="40" y="446" type="curve" smooth="yes"/>
      <point x="40" y="441" type="line" smooth="yes"/>
      <point x="40" y="335"/>
      <point x="71" y="300"/>
      <point x="177" y="268" type="curve" smooth="yes"/>
      <point x="239" y="249" type="line" smooth="yes"/>
      <point x="312" y="227"/>
      <point x="326" y="210"/>
      <point x="326" y="167" type="curve" smooth="yes"/>
      <point x="326" y="147" type="line" smooth="yes"/>
      <point x="326" y="91"/>
      <point x="294" y="61"/>
      <point x="198" y="61" type="curve" smooth="yes"/>
      <point x="155" y="61"/>
      <point x="116" y="67"/>
      <point x="67" y="78" type="curve"/>
      <point x="65" y="5" type="line"/>
      <point x="107" y="-3"/>
      <point x="149" y="-11"/>
      <point x="192" y="-12" type="curve"/>
      <point x="192" y="-94" type="line"/>
      <point x="267" y="-94" type="line"/>
      <point x="267" y="-7" type="line"/>
      <point x="374" y="8"/>
      <point x="411" y="66"/>
      <point x="411" y="155" type="curve" smooth="yes"/>
      <point x="411" y="160" type="line" smooth="yes"/>
      <point x="411" y="258"/>
      <point x="378" y="296"/>
      <point x="264" y="330" type="curve" smooth="yes"/>
      <point x="201" y="349" type="line" smooth="yes"/>
      <point x="134" y="369"/>
      <point x="125" y="386"/>
      <point x="125" y="434" type="curve" smooth="yes"/>
      <point x="125" y="454" type="line" smooth="yes"/>
      <point x="125" y="510"/>
      <point x="155" y="540"/>
      <point x="243" y="540" type="curve" smooth="yes"/>
      <point x="289" y="540"/>
      <point x="337" y="533"/>
      <point x="374" y="526" type="curve"/>
      <point x="376" y="599" type="line"/>
      <point x="340" y="604"/>
      <point x="303" y="610"/>
      <point x="267" y="612" type="curve"/>
      <point x="267" y="695" type="line"/>
    </contour>
  </outline>
</glyph>
<glyph name="ampersand" format="1">
  <advance width="540"/>
  <unicode hex="0026"/>
  <outline>
    <contour>
      <point x="129" y="667"/>
      <point x="65" y="596"/>
      <point x="65" y="507" type="curve" smooth="yes"/>
      <point x="65" y="485" type="line" smooth="yes"/>
      <point x="65" y="421"/>
      <point x="91" y="369"/>
      <point x="157" y="340" type="curve"/>
      <point x="82" y="317"/>
      <point x="40" y="258"/>
      <point x="40" y="184" type="curve" smooth="yes"/>
      <point x="40" y="162" type="line" smooth="yes"/>
      <point x="40" y="58"/>
      <point x="97" y="-12"/>
      <point x="273" y="-12" type="curve" smooth="yes"/>
      <point x="334" y="-12"/>
      <point x="370" y="-5"/>
      <point x="456" y="13" type="curve"/>
      <point x="456" y="298" type="line"/>
      <point x="530" y="298" type="line"/>
      <point x="530" y="367" type="line"/>
      <point x="456" y="367" type="line"/>
      <point x="456" y="440" type="line"/>
      <point x="374" y="440" type="line"/>
      <point x="374" y="367" type="line"/>
      <point x="273" y="367" type="line" smooth="yes"/>
      <point x="191" y="367"/>
      <point x="148" y="410"/>
      <point x="148" y="478" type="curve" smooth="yes"/>
      <point x="148" y="500" type="line" smooth="yes"/>
      <point x="148" y="561"/>
      <point x="178" y="596"/>
      <point x="250" y="596" type="curve" smooth="yes"/>
      <point x="292" y="596"/>
      <point x="332" y="591"/>
      <point x="366" y="585" type="curve"/>
      <point x="368" y="656" type="line"/>
      <point x="323" y="663"/>
      <point x="287" y="667"/>
      <point x="250" y="667" type="curve" smooth="yes"/>
    </contour>
    <contour>
      <point x="374" y="73" type="line"/>
      <point x="334" y="64"/>
      <point x="307" y="60"/>
      <point x="273" y="60" type="curve" smooth="yes"/>
      <point x="171" y="60"/>
      <point x="125" y="98"/>
      <point x="125" y="161" type="curve" smooth="yes"/>
      <point x="125" y="188" type="line" smooth="yes"/>
      <point x="125" y="255"/>
      <point x="170" y="298"/>
      <point x="267" y="298" type="curve" smooth="yes"/>
      <point x="374" y="298" type="line"/>
    </contour>
  </outline>
</glyph>
<glyph name="parenleft" format="1">
  <advance width="231"/>
  <unicode hex="0028"/>
  <outline>
    <contour>
      <point x="99" y="742"/>
      <point x="70" y="705"/>
      <point x="70" y="558" type="curve" smooth="yes"/>
      <point x="70" y="83" type="line" smooth="yes"/>
      <point x="70" y="-64"/>
      <point x="99" y="-101"/>
      <point x="241" y="-101" type="curve"/>
      <point x="241" y="-31" type="line"/>
      <point x="163" y="-27"/>
      <point x="155" y="-12"/>
      <point x="155" y="59" type="curve" smooth="yes"/>
      <point x="155" y="582" type="line" smooth="yes"/>
      <point x="155" y="656"/>
      <point x="166" y="667"/>
      <point x="241" y="672" type="curve"/>
      <point x="241" y="742" type="line"/>
    </contour>
  </outline>
</glyph>
<glyph name="parenright" format="1">
  <advance width="231"/>
  <unicode hex="0029"/>
  <outline>
    <contour>
      <point x="-10" y="679" type="line"/>
      <point x="65" y="674"/>
      <point x="76" y="663"/>
      <point x="76" y="589" type="curve" smooth="yes"/>
      <point x="76" y="66" type="line" smooth="yes"/>
      <point x="76" y="-5"/>
      <point x="68" y="-20"/>
      <point x="-10" y="-24" type="curve"/>
      <point x="-10" y="-94" type="line"/>
      <point x="132" y="-94"/>
      <point x="161" y="-57"/>
      <point x="161" y="90" type="curve" smooth="yes"/>
      <point x="161" y="565" type="line" smooth="yes"/>
      <point x="161" y="712"/>
      <point x="132" y="749"/>
      <point x="-10" y="749" type="curve"/>
    </contour>
  </outline>
</glyph>
<glyph name="plus" format="1">
  <advance width="390"/>
  <unicode hex="002B"/>
  <outline>
    <contour>
      <point x="157" y="488" type="line"/>
      <point x="157" y="336" type="line"/>
      <point x="17" y="336" type="line"/>
      <point x="17" y="265" type="line"/>
      <point x="157" y="265" type="line"/>
      <point x="157" y="113" type="line"/>
      <point x="233" y="113" type="line"/>
      <point x="233" y="265" type="line"/>
      <point x="373" y="265" type="line"/>
      <point x="373" y="336" type="line"/>
      <point x="233" y="336" type="line"/>
      <point x="233" y="488" type="line"/>
    </contour>
  </outline>
</glyph>
<glyph name="comma" format="1">
  <advance width="220"/>
  <unicode hex="002C"/>
  <outline>
    <contour>
      <point x="75" y="110"/>
      <point x="56" y="94"/>
      <point x="56" y="65" type="curve" smooth="yes"/>
      <point x="56" y="35" type="line" smooth="yes"/>
      <point x="56" y="12"/>
      <point x="68" y="-3"/>
      <point x="91" y="-8" type="curve"/>
      <point x="55" y="-161" type="line"/>
      <point x="115" y="-161" type="line"/>
      <point x="158" y="-18" type="line" smooth="yes"/>
      <point x="163" y="-2"/>
      <point x="165" y="13"/>
      <point x="165" y="33" type="curve" smooth="yes"/>
      <point x="165" y="65" type="line" smooth="yes"/>
      <point x="165" y="94"/>
      <point x="146" y="110"/>
      <point x="110" y="110" type="curve" smooth="yes"/>
    </contour>
  </outline>
</glyph>
<glyph name="period" format="1">
  <advance width="223"/>
  <unicode hex="002E"/>
  <outline>
    <contour>
      <point x="75" y="110"/>
      <point x="55" y="94"/>
      <point x="55" y="63" type="curve" smooth="yes"/>
      <point x="55" y="34" type="line" smooth="yes"/>
      <point x="55" y="4"/>
      <point x="75" y="-12"/>
      <point x="111" y="-12" type="curve" smooth="yes"/>
      <point x="148" y="-12"/>
      <point x="168" y="4"/>
      <point x="168" y="34" type="curve" smooth="yes"/>
      <point x="168" y="63" type="line" smooth="yes"/>
      <point x="168" y="94"/>
      <point x="148" y="110"/>
      <point x="111" y="110" type="curve" smooth="yes"/>
    </contour>
  </outline>
</glyph>
<glyph name="zero" format="1">
  <advance width="500"/>
  <unicode hex="0030"/>
  <outline>
    <contour>
      <point x="132" y="613"/>
      <point x="65" y="546"/>
      <point x="65" y="408" type="curve" smooth="yes"/>
      <point x="65" y="193" type="line" smooth="yes"/>
      <point x="65" y="55"/>
      <point x="132" y="-12"/>
      <point x="250" y="-12" type="curve" smooth="yes"/>
      <point x="368" y="-12"/>
      <point x="435" y="55"/>
      <point x="435" y="193" type="curve"/>
      <point x="435" y="408" type="line" smooth="yes"/>
      <point x="435" y="546"/>
      <point x="368" y="613"/>
      <point x="250" y="613" type="curve" smooth="yes"/>
    </contour>
    <contour>
      <point x="312" y="541"/>
      <point x="350" y="504"/>
      <point x="350" y="416" type="curve" smooth="yes"/>
      <point x="350" y="185" type="line" smooth="yes"/>
      <point x="350" y="97"/>
      <point x="312" y="60"/>
      <point x="250" y="60" type="curve" smooth="yes"/>
      <point x="188" y="60"/>
      <point x="150" y="97"/>
      <point x="150" y="185" type="curve" smooth="yes"/>
      <point x="150" y="416" type="line" smooth="yes"/>
      <point x="150" y="504"/>
      <point x="187" y="541"/>
      <point x="250" y="541" type="curve" smooth="yes"/>
    </contour>
  </outline>
</glyph>
<glyph name="one" format="1">
  <advance width="312"/>
  <unicode hex="0031"/>
  <outline>
    <contour>
      <point x="162" y="601" type="line"/>
      <point x="0" y="535" type="line"/>
      <point x="17" y="462" type="line"/>
      <point x="150" y="519" type="line"/>
      <point x="152" y="519" type="line"/>
      <point x="152" y="0" type="line"/>
      <point x="237" y="0" type="line"/>
      <point x="237" y="601" type="line"/>
    </contour>
  </outline>
</glyph>
<glyph name="two" format="1">
  <advance width="387"/>
  <unicode hex="0032"/>
  <outline>
    <contour>
      <point x="116" y="613"/>
      <point x="69" y="604"/>
      <point x="25" y="592" type="curve"/>
      <point x="25" y="519" type="line"/>
      <point x="60" y="530"/>
      <point x="112" y="541"/>
      <point x="151" y="541" type="curve" smooth="yes"/>
      <point x="224" y="541"/>
      <point x="255" y="516"/>
      <point x="255" y="452" type="curve" smooth="yes"/>
      <point x="255" y="434" type="line" smooth="yes"/>
      <point x="255" y="387"/>
      <point x="248" y="366"/>
      <point x="210" y="318" type="curve" smooth="yes"/>
      <point x="10" y="65" type="line"/>
      <point x="10" y="0" type="line"/>
      <point x="347" y="0" type="line"/>
      <point x="347" y="73" type="line"/>
      <point x="112" y="73" type="line"/>
      <point x="257" y="248" type="line" smooth="yes"/>
      <point x="329" y="334"/>
      <point x="340" y="378"/>
      <point x="340" y="435" type="curve" smooth="yes"/>
      <point x="340" y="457" type="line" smooth="yes"/>
      <point x="340" y="560"/>
      <point x="281" y="613"/>
      <point x="151" y="613" type="curve" smooth="yes"/>
    </contour>
  </outline>
</glyph>
<glyph name="four" format="1">
  <advance width="421"/>
  <unicode hex="0034"/>
  <outline>
    <contour>
      <point x="253" y="601" type="line"/>
      <point x="-5" y="188" type="line"/>
      <point x="-5" y="129" type="line"/>
      <point x="267" y="129" type="line"/>
      <point x="267" y="0" type="line"/>
      <point x="350" y="0" type="line"/>
      <point x="350" y="129" type="line"/>
      <point x="411" y="129" type="line"/>
      <point x="411" y="199" type="line"/>
      <point x="350" y="199" type="line"/>
      <point x="350" y="601" type="line"/>
    </contour>
    <contour>
      <point x="268" y="213" type="line"/>
      <point x="268" y="199" type="line"/>
      <point x="86" y="199" type="line"/>
      <point x="268" y="504" type="line"/>
    </contour>
  </outline>
</glyph>
<glyph name="five" format="1">
  <advance width="441"/>
  <unicode hex="0035"/>
  <outline>
    <contour>
      <point x="50" y="604" type="line"/>
      <point x="50" y="246" type="line"/>
      <point x="115" y="246" type="line"/>
      <point x="156" y="292"/>
      <point x="194" y="311"/>
      <point x="247" y="311" type="curve" smooth="yes"/>
      <point x="294" y="311"/>
      <point x="321" y="283"/>
      <point x="321" y="215" type="curve" smooth="yes"/>
      <point x="321" y="176" type="line" smooth="yes"/>
      <point x="321" y="101"/>
      <point x="283" y="60"/>
      <point x="209" y="60" type="curve" smooth="yes"/>
      <point x="175" y="60"/>
      <point x="96" y="71"/>
      <point x="60" y="79" type="curve"/>
      <point x="60" y="10" type="line"/>
      <point x="99" y="-1"/>
      <point x="161" y="-12"/>
      <point x="211" y="-12" type="curve" smooth="yes"/>
      <point x="342" y="-12"/>
      <point x="406" y="53"/>
      <point x="406" y="176" type="curve"/>
      <point x="406" y="212" type="line" smooth="yes"/>
      <point x="406" y="334"/>
      <point x="357" y="382"/>
      <point x="268" y="382" type="curve" smooth="yes"/>
      <point x="216" y="382"/>
      <point x="169" y="366"/>
      <point x="132" y="336" type="curve"/>
      <point x="132" y="531" type="line"/>
      <point x="358" y="531" type="line"/>
      <point x="358" y="604" type="line"/>
    </contour>
  </outline>
</glyph>
<glyph name="six" format="1">
  <advance width="475"/>
  <unicode hex="0036"/>
  <outline>
    <contour>
      <point x="166" y="603"/>
      <point x="60" y="519"/>
      <point x="60" y="362" type="curve" smooth="yes"/>
      <point x="60" y="178" type="line" smooth="yes"/>
      <point x="60" y="57"/>
      <point x="124" y="-12"/>
      <point x="244" y="-12" type="curve" smooth="yes"/>
      <point x="365" y="-12"/>
      <point x="430" y="52"/>
      <point x="430" y="173" type="curve" smooth="yes"/>
      <point x="430" y="212" type="line" smooth="yes"/>
      <point x="430" y="332"/>
      <point x="372" y="389"/>
      <point x="279" y="389" type="curve" smooth="yes"/>
      <point x="239" y="389"/>
      <point x="196" y="370"/>
      <point x="145" y="322" type="curve"/>
      <point x="145" y="378" type="line" smooth="yes"/>
      <point x="145" y="477"/>
      <point x="209" y="530"/>
      <point x="377" y="533" type="curve"/>
      <point x="377" y="606" type="line"/>
    </contour>
    <contour>
      <point x="314" y="315"/>
      <point x="345" y="282"/>
      <point x="345" y="215" type="curve" smooth="yes"/>
      <point x="345" y="168" type="line" smooth="yes"/>
      <point x="345" y="95"/>
      <point x="310" y="60"/>
      <point x="244" y="60" type="curve" smooth="yes"/>
      <point x="179" y="60"/>
      <point x="145" y="97"/>
      <point x="145" y="173" type="curve" smooth="yes"/>
      <point x="145" y="250" type="line"/>
      <point x="183" y="285"/>
      <point x="226" y="315"/>
      <point x="264" y="315" type="curve" smooth="yes"/>
    </contour>
  </outline>
</glyph>
<glyph name="seven" format="1">
  <advance width="378"/>
  <unicode hex="0037"/>
  <outline>
    <contour>
      <point x="5" y="600" type="line"/>
      <point x="5" y="526" type="line"/>
      <point x="275" y="526" type="line"/>
      <point x="275" y="524" type="line"/>
      <point x="51" y="0" type="line"/>
      <point x="142" y="0" type="line"/>
      <point x="366" y="542" type="line"/>
      <point x="366" y="600" type="line"/>
    </contour>
  </outline>
</glyph>
<glyph name="equal" format="1">
  <advance width="420"/>
  <unicode hex="003D"/>
  <outline>
    <contour>
      <point x="33" y="421" type="line"/>
      <point x="33" y="351" type="line"/>
      <point x="387" y="351" type="line"/>
      <point x="387" y="421" type="line"/>
    </contour>
    <contour>
      <point x="33" y="250" type="line"/>
      <point x="33" y="180" type="line"/>
      <point x="387" y="180" type="line"/>
      <point x="387" y="250" type="line"/>
    </contour>
  </outline>
</glyph>
<glyph name="question" format="1">
  <advance width="395"/>
  <unicode hex="003F"/>
  <outline>
    <contour>
      <point x="121" y="695"/>
      <point x="69" y="688"/>
      <point x="25" y="679" type="curve"/>
      <point x="25" y="609" type="line"/>
      <point x="60" y="617"/>
      <point x="112" y="627"/>
      <point x="151" y="627" type="curve" smooth="yes"/>
      <point x="232" y="627"/>
      <point x="255" y="604"/>
      <point x="255" y="556" type="curve" smooth="yes"/>
      <point x="255" y="534" type="line" smooth="yes"/>
      <point x="255" y="488"/>
      <point x="247" y="466"/>
      <point x="210" y="422" type="curve" smooth="yes"/>
      <point x="152" y="354" type="line" smooth="yes"/>
      <point x="117" y="313"/>
      <point x="112" y="297"/>
      <point x="112" y="232" type="curve" smooth="yes"/>
      <point x="112" y="200" type="line"/>
      <point x="193" y="200" type="line"/>
      <point x="193" y="245" type="line" smooth="yes"/>
      <point x="193" y="286"/>
      <point x="199" y="299"/>
      <point x="220" y="321" type="curve" smooth="yes"/>
      <point x="253" y="357" type="line" smooth="yes"/>
      <point x="316" y="423"/>
      <point x="340" y="472"/>
      <point x="340" y="532" type="curve" smooth="yes"/>
      <point x="340" y="557" type="line" smooth="yes"/>
      <point x="340" y="644"/>
      <point x="290" y="695"/>
      <point x="156" y="695" type="curve" smooth="yes"/>
    </contour>
    <contour>
      <point x="119" y="108"/>
      <point x="99" y="92"/>
      <point x="99" y="62" type="curve" smooth="yes"/>
      <point x="99" y="33" type="line" smooth="yes"/>
      <point x="99" y="4"/>
      <point x="119" y="-12"/>
      <point x="154" y="-12" type="curve" smooth="yes"/>
      <point x="190" y="-12"/>
      <point x="210" y="4"/>
      <point x="210" y="33" type="curve" smooth="yes"/>
      <point x="210" y="62" type="line" smooth="yes"/>
      <point x="210" y="92"/>
      <point x="190" y="108"/>
      <point x="154" y="108" type="curve" smooth="yes"/>
    </contour>
  </outline>
</glyph>
<glyph name="A" format="1">
  <advance width="532"/>
  <unicode hex="0041"/>
  <outline>
    <contour>
      <point x="213" y="655" type="line"/>
      <point x="13" y="0" type="line"/>
      <point x="100" y="0" type="line"/>
      <point x="143" y="152" type="line"/>
      <point x="384" y="152" type="line"/>
      <point x="427" y="0" type="line"/>
      <point x="519" y="0" type="line"/>
      <point x="318" y="655" type="line"/>
    </contour>
    <contour>
      <point x="363" y="228" type="line"/>
      <point x="164" y="228" type="line"/>
      <point x="264" y="577" type="line"/>
    </contour>
    <contour>
      <point x="479" y="10" type="move" name="ogonek"/>
    </contour>
    <contour>
      <point x="266" y="655" type="move" name="top"/>
    </contour>
    <contour>
      <point x="160" y="655" type="move" name="topleft"/>
    </contour>
  </outline>
</glyph>
<glyph name="C" format="1">
  <advance width="476"/>
  <unicode hex="0043"/>
  <outline>
    <contour>
      <point x="127" y="667"/>
      <point x="70" y="601"/>
      <point x="70" y="465" type="curve" smooth="yes"/>
      <point x="70" y="190" type="line" smooth="yes"/>
      <point x="70" y="56"/>
      <point x="125" y="-12"/>
      <point x="283" y="-12" type="curve" smooth="yes"/>
      <point x="328" y="-12"/>
      <point x="377" y="-3"/>
      <point x="421" y="4" type="curve"/>
      <point x="419" y="81" type="line"/>
      <point x="386" y="75"/>
      <point x="332" y="65"/>
      <point x="283" y="65" type="curve" smooth="yes"/>
      <point x="191" y="65"/>
      <point x="155" y="99"/>
      <point x="155" y="185" type="curve" smooth="yes"/>
      <point x="155" y="471" type="line" smooth="yes"/>
      <point x="155" y="558"/>
      <point x="192" y="592"/>
      <point x="283" y="592" type="curve" smooth="yes"/>
      <point x="332" y="592"/>
      <point x="386" y="582"/>
      <point x="419" y="576" type="curve"/>
      <point x="421" y="651" type="line"/>
      <point x="377" y="658"/>
      <point x="328" y="667"/>
      <point x="283" y="667" type="curve" smooth="yes"/>
    </contour>
    <contour>
      <point x="267" y="655" type="move" name="top"/>
    </contour>
    <contour>
      <point x="238" y="0" type="move" name="bottom"/>
    </contour>
  </outline>
</glyph>
<glyph name="E" format="1">
  <advance width="485"/>
  <unicode hex="0045"/>
  <outline>
    <contour>
      <point x="75" y="655" type="line"/>
      <point x="75" y="0" type="line"/>
      <point x="420" y="0" type="line"/>
      <point x="420" y="77" type="line"/>
      <point x="160" y="77" type="line"/>
      <point x="160" y="295" type="line"/>
      <point x="400" y="295" type="line"/>
      <point x="400" y="371" type="line"/>
      <point x="160" y="371" type="line"/>
      <point x="160" y="578" type="line"/>
      <point x="420" y="578" type="line"/>
      <point x="420" y="655" type="line"/>
    </contour>
    <contour>
      <point x="436" y="10" type="move" name="ogonek"/>
    </contour>
    <contour>
      <point x="253" y="655" type="move" name="top"/>
    </contour>
    <contour>
      <point x="35" y="655" type="move" name="topleft"/>
    </contour>
    <contour>
      <point x="243" y="0" type="move" name="bottom"/>
    </contour>
  </outline>
</glyph>
<glyph name="G" format="1">
  <advance width="555"/>
  <unicode hex="0047"/>
  <outline>
    <contour>
      <point x="132" y="667"/>
      <point x="70" y="606"/>
      <point x="70" y="465" type="curve" smooth="yes"/>
      <point x="70" y="190" type="line" smooth="yes"/>
      <point x="70" y="56"/>
      <point x="125" y="-12"/>
      <point x="283" y="-12" type="curve" smooth="yes"/>
      <point x="353" y="-12"/>
      <point x="430" y="8"/>
      <point x="485" y="25" type="curve"/>
      <point x="485" y="378" type="line"/>
      <point x="275" y="378" type="line"/>
      <point x="275" y="298" type="line"/>
      <point x="400" y="298" type="line"/>
      <point x="400" y="77" type="line"/>
      <point x="359" y="69"/>
      <point x="316" y="63"/>
      <point x="283" y="63" type="curve" smooth="yes"/>
      <point x="190" y="63"/>
      <point x="155" y="99"/>
      <point x="155" y="184" type="curve" smooth="yes"/>
      <point x="155" y="474" type="line" smooth="yes"/>
      <point x="155" y="559"/>
      <point x="190" y="593"/>
      <point x="283" y="593" type="curve" smooth="yes"/>
      <point x="342" y="593"/>
      <point x="418" y="578"/>
      <point x="454" y="571" type="curve"/>
      <point x="456" y="646" type="line"/>
      <point x="412" y="655"/>
      <point x="337" y="667"/>
      <point x="283" y="667" type="curve" smooth="yes"/>
    </contour>
    <contour>
      <point x="274" y="655" type="move" name="top"/>
    </contour>
    <contour>
      <point x="289" y="0" type="move" name="bottom"/>
    </contour>
  </outline>
</glyph>
<glyph name="H" format="1">
  <advance width="580"/>
  <unicode hex="0048"/>
  <outline>
    <contour>
      <point x="420" y="655" type="line"/>
      <point x="420" y="376" type="line"/>
      <point x="160" y="376" type="line"/>
      <point x="160" y="655" type="line"/>
      <point x="75" y="655" type="line"/>
      <point x="75" y="0" type="line"/>
      <point x="160" y="0" type="line"/>
      <point x="160" y="300" type="line"/>
      <point x="420" y="300" type="line"/>
      <point x="420" y="0" type="line"/>
      <point x="505" y="0" type="line"/>
      <point x="505" y="655" type="line"/>
    </contour>
    <contour>
      <point x="290" y="328" type="move" name="center"/>
    </contour>
    <contour>
      <point x="290" y="655" type="move" name="top"/>
    </contour>
    <contour>
      <point x="35" y="655" type="move" name="topleft"/>
    </contour>
  </outline>
</glyph>
<glyph name="I" format="1">
  <advance width="235"/>
  <unicode hex="0049"/>
  <outline>
    <contour>
      <point x="75" y="655" type="line"/>
      <point x="75" y="0" type="line"/>
      <point x="160" y="0" type="line"/>
      <point x="160" y="655" type="line"/>
    </contour>
    <contour>
      <point x="211" y="10" type="move" name="ogonek"/>
    </contour>
    <contour>
      <point x="118" y="655" type="move" name="top"/>
    </contour>
    <contour>
      <point x="35" y="655" type="move" name="topleft"/>
    </contour>
  </outline>
</glyph>
<glyph name="J" format="1">
  <advance width="287"/>
  <unicode hex="004A"/>
  <outline>
    <contour>
      <point x="127" y="655" type="line"/>
      <point x="127" y="132" type="line" smooth="yes"/>
      <point x="127" y="80"/>
      <point x="104" y="61"/>
      <point x="63" y="61" type="curve" smooth="yes"/>
      <point x="38" y="61"/>
      <point x="6" y="64"/>
      <point x="-5" y="66" type="curve"/>
      <point x="-5" y="-5" type="line"/>
      <point x="4" y="-8"/>
      <point x="37" y="-12"/>
      <point x="59" y="-12" type="curve" smooth="yes"/>
      <point x="166" y="-12"/>
      <point x="212" y="37"/>
      <point x="212" y="139" type="curve" smooth="yes"/>
      <point x="212" y="655" type="line"/>
    </contour>
    <contour>
      <point x="170" y="655" type="move" name="top"/>
    </contour>
  </outline>
</glyph>
<glyph name="K" format="1">
  <advance width="525"/>
  <unicode hex="004B"/>
  <outline>
    <contour>
      <point x="404" y="655" type="line"/>
      <point x="160" y="339" type="line"/>
      <point x="160" y="655" type="line"/>
      <point x="75" y="655" type="line"/>
      <point x="75" y="0" type="line"/>
      <point x="160" y="0" type="line"/>
      <point x="160" y="321" type="line"/>
      <point x="416" y="0" type="line"/>
      <point x="525" y="0" type="line"/>
      <point x="248" y="338" type="line"/>
      <point x="499" y="655" type="line"/>
    </contour>
    <contour>
      <point x="263" y="655" type="move" name="top"/>
    </contour>
    <contour>
      <point x="279" y="0" type="move" name="bottom"/>
    </contour>
  </outline>
</glyph>
<glyph name="L" format="1">
  <advance width="450"/>
  <unicode hex="004C"/>
  <outline>
    <contour>
      <point x="75" y="655" type="line"/>
      <point x="75" y="0" type="line"/>
      <point x="420" y="0" type="line"/>
      <point x="420" y="75" type="line"/>
      <point x="160" y="75" type="line"/>
      <point x="160" y="655" type="line"/>
    </contour>
    <contour>
      <point x="252" y="0" type="move" name="bottom"/>
    </contour>
    <contour>
      <point x="132" y="655" type="move" name="top"/>
    </contour>
    <contour>
      <point x="271" y="459" type="move" name="topleft"/>
    </contour>
    <contour>
      <point x="329" y="359" type="move" name="center"/>
    </contour>
  </outline>
</glyph>
<glyph name="M" format="1">
  <advance width="699"/>
  <unicode hex="004D"/>
  <outline>
    <contour>
      <point x="629" y="0" type="line"/>
      <point x="623" y="655" type="line"/>
      <point x="497" y="655" type="line"/>
      <point x="350" y="144" type="line"/>
      <point x="202" y="655" type="line"/>
      <point x="76" y="655" type="line"/>
      <point x="70" y="0" type="line"/>
      <point x="153" y="0" type="line"/>
      <point x="158" y="538" type="line"/>
      <point x="297" y="68" type="line"/>
      <point x="402" y="68" type="line"/>
      <point x="541" y="538" type="line"/>
      <point x="546" y="0" type="line"/>
    </contour>
  </outline>
</glyph>
<glyph name="N" format="1">
  <advance width="582"/>
  <unicode hex="004E"/>
  <outline>
    <contour>
      <point x="507" y="0" type="line"/>
      <point x="507" y="655" type="line"/>
      <point x="423" y="655" type="line"/>
      <point x="423" y="102" type="line"/>
      <point x="211" y="655" type="line"/>
      <point x="75" y="655" type="line"/>
      <point x="75" y="0" type="line"/>
      <point x="159" y="0" type="line"/>
      <point x="159" y="553" type="line"/>
      <point x="375" y="0" type="line"/>
    </contour>
    <contour>
      <point x="296" y="655" type="move" name="top"/>
    </contour>
    <contour>
      <point x="304" y="0" type="move" name="bottom"/>
    </contour>
  </outline>
</glyph>
<glyph name="O" format="1">
  <advance width="576"/>
  <unicode hex="004F"/>
  <outline>
    <contour>
      <point x="133" y="667"/>
      <point x="70" y="584"/>
      <point x="70" y="452" type="curve" smooth="yes"/>
      <point x="70" y="203" type="line" smooth="yes"/>
      <point x="70" y="71"/>
      <point x="133" y="-12"/>
      <point x="288" y="-12" type="curve" smooth="yes"/>
      <point x="443" y="-12"/>
      <point x="506" y="71"/>
      <point x="506" y="203" type="curve" smooth="yes"/>
      <point x="506" y="452" type="line" smooth="yes"/>
      <point x="506" y="584"/>
      <point x="443" y="667"/>
      <point x="288" y="667" type="curve" smooth="yes"/>
    </contour>
    <contour>
      <point x="377" y="592"/>
      <point x="421" y="545"/>
      <point x="421" y="461" type="curve" smooth="yes"/>
      <point x="421" y="194" type="line" smooth="yes"/>
      <point x="421" y="109"/>
      <point x="376" y="63"/>
      <point x="288" y="63" type="curve" smooth="yes"/>
      <point x="200" y="63"/>
      <point x="155" y="109"/>
      <point x="155" y="194" type="curve" smooth="yes"/>
      <point x="155" y="462" type="line" smooth="yes"/>
      <point x="155" y="546"/>
      <point x="199" y="592"/>
      <point x="288" y="592" type="curve" smooth="yes"/>
    </contour>
    <contour>
      <point x="288" y="655" type="move" name="top"/>
    </contour>
    <contour>
      <point x="70" y="655" type="move" name="topleft"/>
    </contour>
  </outline>
</glyph>
<glyph name="P" format="1">
  <advance width="511"/>
  <unicode hex="0050"/>
  <outline>
    <contour>
      <point x="177" y="667"/>
      <point x="126" y="665"/>
      <point x="75" y="662" type="curve"/>
      <point x="75" y="0" type="line"/>
      <point x="160" y="0" type="line"/>
      <point x="160" y="272" type="line"/>
      <point x="198" y="266"/>
      <point x="227" y="264"/>
      <point x="256" y="264" type="curve" smooth="yes"/>
      <point x="410" y="264"/>
      <point x="481" y="338"/>
      <point x="481" y="460" type="curve" smooth="yes"/>
      <point x="481" y="484" type="line" smooth="yes"/>
      <point x="481" y="599"/>
      <point x="409" y="667"/>
      <point x="248" y="667" type="curve" smooth="yes"/>
    </contour>
    <contour>
      <point x="352" y="595"/>
      <point x="396" y="555"/>
      <point x="396" y="481" type="curve" smooth="yes"/>
      <point x="396" y="464" type="line" smooth="yes"/>
      <point x="396" y="379"/>
      <point x="348" y="337"/>
      <point x="252" y="337" type="curve" smooth="yes"/>
      <point x="228" y="337"/>
      <point x="205" y="339"/>
      <point x="160" y="345" type="curve"/>
      <point x="160" y="593" type="line"/>
      <point x="181" y="594"/>
      <point x="202" y="595"/>
      <point x="246" y="595" type="curve" smooth="yes"/>
    </contour>
  </outline>
</glyph>
<glyph name="R" format="1">
  <advance width="540"/>
  <unicode hex="0052"/>
  <outline>
    <contour>
      <point x="192" y="667"/>
      <point x="131" y="665"/>
      <point x="75" y="663" type="curve"/>
      <point x="75" y="0" type="line"/>
      <point x="160" y="0" type="line"/>
      <point x="160" y="286" type="line"/>
      <point x="200" y="283"/>
      <point x="249" y="282"/>
      <point x="271" y="284" type="curve"/>
      <point x="430" y="0" type="line"/>
      <point x="525" y="0" type="line"/>
      <point x="355" y="302" type="line"/>
      <point x="438" y="327"/>
      <point x="479" y="393"/>
      <point x="479" y="467" type="curve" smooth="yes"/>
      <point x="479" y="492" type="line" smooth="yes"/>
      <point x="479" y="598"/>
      <point x="412" y="667"/>
      <point x="249" y="667" type="curve" smooth="yes"/>
    </contour>
    <contour>
      <point x="352" y="595"/>
      <point x="394" y="559"/>
      <point x="394" y="489" type="curve" smooth="yes"/>
      <point x="394" y="469" type="line" smooth="yes"/>
      <point x="394" y="397"/>
      <point x="352" y="352"/>
      <point x="250" y="352" type="curve" smooth="yes"/>
      <point x="222" y="352"/>
      <point x="203" y="353"/>
      <point x="160" y="357" type="curve"/>
      <point x="160" y="593" type="line"/>
      <point x="187" y="594"/>
      <point x="225" y="595"/>
      <point x="247" y="595" type="curve" smooth="yes"/>
    </contour>
    <contour>
      <point x="258" y="655" type="move" name="top"/>
    </contour>
    <contour>
      <point x="284" y="0" type="move" name="bottom"/>
    </contour>
  </outline>
</glyph>
<glyph name="S" format="1">
  <advance width="461"/>
  <unicode hex="0053"/>
  <outline>
    <contour>
      <point x="101" y="667"/>
      <point x="45" y="604"/>
      <point x="45" y="491" type="curve" smooth="yes"/>
      <point x="45" y="480" type="line" smooth="yes"/>
      <point x="45" y="381"/>
      <point x="76" y="340"/>
      <point x="168" y="310" type="curve" smooth="yes"/>
      <point x="271" y="276" type="line" smooth="yes"/>
      <point x="324" y="259"/>
      <point x="341" y="237"/>
      <point x="341" y="191" type="curve" smooth="yes"/>
      <point x="341" y="158" type="line" smooth="yes"/>
      <point x="341" y="97"/>
      <point x="307" y="65"/>
      <point x="204" y="65" type="curve" smooth="yes"/>
      <point x="170" y="65"/>
      <point x="116" y="72"/>
      <point x="62" y="85" type="curve"/>
      <point x="60" y="8" type="line"/>
      <point x="118" y="-5"/>
      <point x="174" y="-12"/>
      <point x="206" y="-12" type="curve" smooth="yes"/>
      <point x="367" y="-12"/>
      <point x="426" y="51"/>
      <point x="426" y="165" type="curve" smooth="yes"/>
      <point x="426" y="184" type="line" smooth="yes"/>
      <point x="426" y="282"/>
      <point x="393" y="326"/>
      <point x="304" y="356" type="curve" smooth="yes"/>
      <point x="211" y="387" type="line"/>
      <point x="144" y="408"/>
      <point x="130" y="425"/>
      <point x="130" y="473" type="curve" smooth="yes"/>
      <point x="130" y="499" type="line" smooth="yes"/>
      <point x="130" y="560"/>
      <point x="159" y="592"/>
      <point x="239" y="592" type="curve" smooth="yes"/>
      <point x="279" y="592"/>
      <point x="332" y="585"/>
      <point x="378" y="576" type="curve"/>
      <point x="380" y="651" type="line"/>
      <point x="331" y="660"/>
      <point x="273" y="667"/>
      <point x="239" y="667" type="curve" smooth="yes"/>
    </contour>
    <contour>
      <point x="231" y="655" type="move" name="top"/>
    </contour>
    <contour>
      <point x="235" y="0" type="move" name="bottom"/>
    </contour>
  </outline>
</glyph>
<glyph name="T" format="1">
  <advance width="525"/>
  <unicode hex="0054"/>
  <outline>
    <contour>
      <point x="30" y="655" type="line"/>
      <point x="30" y="578" type="line"/>
      <point x="220" y="578" type="line"/>
      <point x="220" y="0" type="line"/>
      <point x="305" y="0" type="line"/>
      <point x="305" y="578" type="line"/>
      <point x="495" y="578" type="line"/>
      <point x="495" y="655" type="line"/>
    </contour>
    <contour>
      <point x="263" y="328" type="move" name="center"/>
    </contour>
    <contour>
      <point x="263" y="0" type="move" name="bottom"/>
    </contour>
    <contour>
      <point x="263" y="655" type="move" name="top"/>
    </contour>
  </outline>
</glyph>
<glyph name="U" format="1">
  <advance width="576"/>
  <unicode hex="0055"/>
  <outline>
    <contour>
      <point x="416" y="655" type="line"/>
      <point x="416" y="194" type="line" smooth="yes"/>
      <point x="416" y="107"/>
      <point x="369" y="63"/>
      <point x="288" y="63" type="curve" smooth="yes"/>
      <point x="207" y="63"/>
      <point x="160" y="107"/>
      <point x="160" y="194" type="curve" smooth="yes"/>
      <point x="160" y="655" type="line"/>
      <point x="75" y="655" type="line"/>
      <point x="75" y="205" type="line" smooth="yes"/>
      <point x="75" y="61"/>
      <point x="150" y="-12"/>
      <point x="288" y="-12" type="curve" smooth="yes"/>
      <point x="430" y="-12"/>
      <point x="501" y="67"/>
      <point x="501" y="207" type="curve" smooth="yes"/>
      <point x="501" y="655" type="line"/>
    </contour>
    <contour>
      <point x="518" y="10" type="move" name="ogonek"/>
    </contour>
    <contour>
      <point x="288" y="655" type="move" name="top"/>
    </contour>
  </outline>
</glyph>
<glyph name="V" format="1">
  <advance width="526"/>
  <unicode hex="0056"/>
  <outline>
    <contour>
      <point x="423" y="655" type="line"/>
      <point x="260" y="82" type="line"/>
      <point x="103" y="655" type="line"/>
      <point x="13" y="655" type="line"/>
      <point x="204" y="0" type="line"/>
      <point x="316" y="0" type="line"/>
      <point x="513" y="655" type="line"/>
    </contour>
  </outline>
</glyph>
<glyph name="Y" format="1">
  <advance width="491"/>
  <unicode hex="0059"/>
  <outline>
    <contour>
      <point x="383" y="655" type="line"/>
      <point x="246" y="315" type="line"/>
      <point x="110" y="655" type="line"/>
      <point x="13" y="655" type="line"/>
      <point x="203" y="225" type="line"/>
      <point x="203" y="0" type="line"/>
      <point x="288" y="0" type="line"/>
      <point x="288" y="225" type="line"/>
      <point x="478" y="655" type="line"/>
    </contour>
    <contour>
      <point x="246" y="655" type="move" name="top"/>
    </contour>
    <contour>
      <point x="-10" y="655" type="move" name="topleft"/>
    </contour>
  </outline>
</glyph>
<glyph name="Z" format="1">
  <advance width="480"/>
  <unicode hex="005A"/>
  <outline>
    <contour>
      <point x="46" y="655" type="line"/>
      <point x="46" y="578" type="line"/>
      <point x="336" y="578" type="line"/>
      <point x="40" y="67" type="line"/>
      <point x="40" y="0" type="line"/>
      <point x="435" y="0" type="line"/>
      <point x="435" y="77" type="line"/>
      <point x="139" y="77" type="line"/>
      <point x="435" y="588" type="line"/>
      <point x="435" y="655" type="line"/>
    </contour>
    <contour>
      <point x="239" y="655" type="move" name="top"/>
    </contour>
  </outline>
</glyph>
<glyph name="bracketleft" format="1">
  <advance width="260"/>
  <unicode hex="005B"/>
  <outline>
    <contour>
      <point x="70" y="747" type="line"/>
      <point x="70" y="-92" type="line"/>
      <point x="275" y="-92" type="line"/>
      <point x="275" y="-22" type="line"/>
      <point x="155" y="-22" type="line"/>
      <point x="155" y="677" type="line"/>
      <point x="275" y="677" type="line"/>
      <point x="275" y="747" type="line"/>
    </contour>
  </outline>
</glyph>
<glyph name="backslash" format="1">
  <advance width="255"/>
  <unicode hex="005C"/>
  <outline>
    <contour>
      <point x="-17" y="683" type="line"/>
      <point x="188" y="0" type="line"/>
      <point x="273" y="0" type="line"/>
      <point x="68" y="683" type="line"/>
    </contour>
  </outline>
</glyph>
<glyph name="asciicircum" format="1">
  <advance width="495"/>
  <unicode hex="005E"/>
  <outline>
    <contour>
      <point x="210" y="683" type="line"/>
      <point x="65" y="403" type="line"/>
      <point x="148" y="403" type="line"/>
      <point x="247" y="604" type="line"/>
      <point x="347" y="403" type="line"/>
      <point x="430" y="403" type="line"/>
      <point x="285" y="683" type="line"/>
    </contour>
  </outline>
</glyph>
<glyph name="grave" format="1">
  <advance width="227"/>
  <unicode hex="0060"/>
  <outline>
    <contour>
      <point x="30" y="685" type="line"/>
      <point x="125" y="546" type="line"/>
      <point x="197" y="546" type="line"/>
      <point x="121" y="685" type="line"/>
    </contour>
    <contour>
      <point x="159" y="488" type="move" name="_top"/>
    </contour>
  </outline>
</glyph>
<glyph name="a" format="1">
  <advance width="449"/>
  <unicode hex="0061"/>
  <outline>
    <contour>
      <point x="184" y="500"/>
      <point x="128" y="492"/>
      <point x="84" y="485" type="curve"/>
      <point x="84" y="412" type="line"/>
      <point x="119" y="418"/>
      <point x="180" y="427"/>
      <point x="219" y="427" type="curve" smooth="yes"/>
      <point x="273" y="427"/>
      <point x="299" y="405"/>
      <point x="299" y="346" type="curve" smooth="yes"/>
      <point x="299" y="291" type="line"/>
      <point x="269" y="297"/>
      <point x="225" y="304"/>
      <point x="196" y="304" type="curve" smooth="yes"/>
      <point x="102" y="304"/>
      <point x="45" y="243"/>
      <point x="45" y="165" type="curve" smooth="yes"/>
      <point x="45" y="137" type="line" smooth="yes"/>
      <point x="45" y="44"/>
      <point x="96" y="-12"/>
      <point x="172" y="-12" type="curve" smooth="yes"/>
      <point x="219" y="-12"/>
      <point x="264" y="18"/>
      <point x="303" y="78" type="curve"/>
      <point x="303" y="0" type="line"/>
      <point x="384" y="0" type="line"/>
      <point x="384" y="339" type="line" smooth="yes"/>
      <point x="384" y="451"/>
      <point x="333" y="500"/>
      <point x="219" y="500" type="curve" smooth="yes"/>
    </contour>
    <contour>
      <point x="238" y="238"/>
      <point x="272" y="236"/>
      <point x="299" y="231" type="curve"/>
      <point x="299" y="154" type="line"/>
      <point x="267" y="96"/>
      <point x="226" y="64"/>
      <point x="191" y="64" type="curve" smooth="yes"/>
      <point x="157" y="64"/>
      <point x="131" y="92"/>
      <point x="131" y="143" type="curve" smooth="yes"/>
      <point x="131" y="154" type="line" smooth="yes"/>
      <point x="131" y="207"/>
      <point x="160" y="238"/>
      <point x="217" y="238" type="curve" smooth="yes"/>
    </contour>
    <contour>
      <point x="404" y="10" type="move" name="ogonek"/>
    </contour>
    <contour>
      <point x="225" y="488" type="move" name="top"/>
    </contour>
  </outline>
</glyph>
<glyph name="b" format="1">
  <advance width="471"/>
  <unicode hex="0062"/>
  <outline>
    <contour>
      <point x="65" y="683" type="line"/>
      <point x="65" y="170" type="line" smooth="yes"/>
      <point x="65" y="49"/>
      <point x="116" y="-12"/>
      <point x="235" y="-12" type="curve" smooth="yes"/>
      <point x="357" y="-12"/>
      <point x="411" y="52"/>
      <point x="411" y="172" type="curve" smooth="yes"/>
      <point x="411" y="330" type="line" smooth="yes"/>
      <point x="411" y="442"/>
      <point x="363" y="500"/>
      <point x="281" y="500" type="curve" smooth="yes"/>
      <point x="231" y="500"/>
      <point x="185" y="472"/>
      <point x="150" y="423" type="curve"/>
      <point x="150" y="683" type="line"/>
    </contour>
    <contour>
      <point x="299" y="424"/>
      <point x="326" y="398"/>
      <point x="326" y="318" type="curve" smooth="yes"/>
      <point x="326" y="162" type="line" smooth="yes"/>
      <point x="326" y="94"/>
      <point x="297" y="59"/>
      <point x="235" y="59" type="curve" smooth="yes"/>
      <point x="183" y="59"/>
      <point x="150" y="94"/>
      <point x="150" y="160" type="curve" smooth="yes"/>
      <point x="150" y="342" type="line"/>
      <point x="179" y="393"/>
      <point x="222" y="424"/>
      <point x="261" y="424" type="curve" smooth="yes"/>
    </contour>
  </outline>
</glyph>
<glyph name="c" format="1">
  <advance width="390"/>
  <unicode hex="0063"/>
  <outline>
    <contour>
      <point x="116" y="500"/>
      <point x="60" y="434"/>
      <point x="60" y="318" type="curve" smooth="yes"/>
      <point x="60" y="170" type="line" smooth="yes"/>
      <point x="60" y="50"/>
      <point x="119" y="-12"/>
      <point x="240" y="-12" type="curve" smooth="yes"/>
      <point x="266" y="-12"/>
      <point x="296" y="-9"/>
      <point x="343" y="1" type="curve"/>
      <point x="341" y="76" type="line"/>
      <point x="306" y="68"/>
      <point x="281" y="63"/>
      <point x="241" y="63" type="curve" smooth="yes"/>
      <point x="183" y="63"/>
      <point x="145" y="95"/>
      <point x="145" y="164" type="curve" smooth="yes"/>
      <point x="145" y="325" type="line" smooth="yes"/>
      <point x="145" y="389"/>
      <point x="178" y="425"/>
      <point x="241" y="425" type="curve" smooth="yes"/>
      <point x="274" y="425"/>
      <point x="305" y="420"/>
      <point x="341" y="412" type="curve"/>
      <point x="343" y="487" type="line"/>
      <point x="299" y="497"/>
      <point x="272" y="500"/>
      <point x="241" y="500" type="curve" smooth="yes"/>
    </contour>
    <contour>
      <point x="223" y="488" type="move" name="top"/>
    </contour>
    <contour>
      <point x="194" y="0" type="move" name="bottom"/>
    </contour>
  </outline>
</glyph>
<glyph name="f" format="1">
  <advance width="308"/>
  <unicode hex="0066"/>
  <outline>
    <contour>
      <point x="154" y="695"/>
      <point x="101" y="644"/>
      <point x="100" y="539" type="curve" smooth="yes"/>
      <point x="100" y="488" type="line"/>
      <point x="30" y="488" type="line"/>
      <point x="30" y="418" type="line"/>
      <point x="100" y="418" type="line"/>
      <point x="100" y="0" type="line"/>
      <point x="185" y="0" type="line"/>
      <point x="185" y="418" type="line"/>
      <point x="285" y="418" type="line"/>
      <point x="285" y="488" type="line"/>
      <point x="185" y="488" type="line"/>
      <point x="185" y="544" type="line" smooth="yes"/>
      <point x="185" y="600"/>
      <point x="212" y="625"/>
      <point x="251" y="625" type="curve" smooth="yes"/>
      <point x="275" y="625"/>
      <point x="295" y="623"/>
      <point x="313" y="620" type="curve"/>
      <point x="313" y="688" type="line"/>
      <point x="300" y="691"/>
      <point x="274" y="695"/>
      <point x="250" y="695" type="curve" smooth="yes"/>
    </contour>
  </outline>
</glyph>
<glyph name="g" format="1">
  <advance width="476"/>
  <unicode hex="0067"/>
  <outline>
    <contour>
      <point x="114" y="500"/>
      <point x="58" y="436"/>
      <point x="58" y="344" type="curve" smooth="yes"/>
      <point x="58" y="322" type="line" smooth="yes"/>
      <point x="58" y="266"/>
      <point x="67" y="227"/>
      <point x="90" y="201" type="curve"/>
      <point x="61" y="179"/>
      <point x="45" y="150"/>
      <point x="45" y="121" type="curve" smooth="yes"/>
      <point x="45" y="101" type="line" smooth="yes"/>
      <point x="45" y="48"/>
      <point x="78" y="13"/>
      <point x="143" y="9" type="curve" smooth="yes"/>
      <point x="293" y="-1" type="line" smooth="yes"/>
      <point x="324" y="-3"/>
      <point x="341" y="-21"/>
      <point x="341" y="-51" type="curve" smooth="yes"/>
      <point x="341" y="-59" type="line" smooth="yes"/>
      <point x="341" y="-106"/>
      <point x="326" y="-124"/>
      <point x="217" y="-124" type="curve" smooth="yes"/>
      <point x="169" y="-124"/>
      <point x="107" y="-109"/>
      <point x="59" y="-93" type="curve"/>
      <point x="56" y="-172" type="line"/>
      <point x="108" y="-187"/>
      <point x="172" y="-197"/>
      <point x="214" y="-197" type="curve" smooth="yes"/>
      <point x="388" y="-197"/>
      <point x="424" y="-152"/>
      <point x="424" y="-72" type="curve" smooth="yes"/>
      <point x="424" y="-35" type="line" smooth="yes"/>
      <point x="424" y="27"/>
      <point x="382" y="71"/>
      <point x="321" y="76" type="curve" smooth="yes"/>
      <point x="172" y="87" type="line" smooth="yes"/>
      <point x="133" y="90"/>
      <point x="123" y="99"/>
      <point x="123" y="120" type="curve" smooth="yes"/>
      <point x="123" y="126" type="line" smooth="yes"/>
      <point x="123" y="139"/>
      <point x="129" y="154"/>
      <point x="145" y="167" type="curve"/>
      <point x="168" y="160"/>
      <point x="196" y="157"/>
      <point x="230" y="157" type="curve" smooth="yes"/>
      <point x="341" y="157"/>
      <point x="401" y="225"/>
      <point x="401" y="319" type="curve" smooth="yes"/>
      <point x="401" y="341" type="line" smooth="yes"/>
      <point x="401" y="368"/>
      <point x="394" y="395"/>
      <point x="384" y="416" type="curve"/>
      <point x="466" y="414" type="line"/>
      <point x="466" y="489" type="line"/>
      <point x="310" y="487" type="line"/>
      <point x="288" y="495"/>
      <point x="261" y="500"/>
      <point x="230" y="500" type="curve" smooth="yes"/>
    </contour>
    <contour>
      <point x="259" y="429"/>
      <point x="289" y="423"/>
      <point x="304" y="416" type="curve"/>
      <point x="311" y="398"/>
      <point x="316" y="373"/>
      <point x="316" y="343" type="curve" smooth="yes"/>
      <point x="316" y="313" type="line" smooth="yes"/>
      <point x="316" y="259"/>
      <point x="286" y="228"/>
      <point x="224" y="228" type="curve" smooth="yes"/>
      <point x="158" y="228"/>
      <point x="143" y="242"/>
      <point x="143" y="313" type="curve" smooth="yes"/>
      <point x="143" y="346" type="line" smooth="yes"/>
      <point x="143" y="400"/>
      <point x="175" y="429"/>
      <point x="230" y="429" type="curve" smooth="yes"/>
    </contour>
    <contour>
      <point x="231" y="488" type="move" name="top"/>
    </contour>
  </outline>
</glyph>
<glyph name="h" format="1">
  <advance width="481"/>
  <unicode hex="0068"/>
  <outline>
    <contour>
      <point x="70" y="683" type="line"/>
      <point x="70" y="0" type="line"/>
      <point x="155" y="0" type="line"/>
      <point x="155" y="339" type="line"/>
      <point x="184" y="390"/>
      <point x="227" y="421"/>
      <point x="266" y="421" type="curve" smooth="yes"/>
      <point x="304" y="421"/>
      <point x="331" y="394"/>
      <point x="331" y="321" type="curve" smooth="yes"/>
      <point x="331" y="0" type="line"/>
      <point x="416" y="0" type="line"/>
      <point x="416" y="333" type="line" smooth="yes"/>
      <point x="416" y="440"/>
      <point x="368" y="500"/>
      <point x="283" y="500" type="curve" smooth="yes"/>
      <point x="233" y="500"/>
      <point x="190" y="472"/>
      <point x="155" y="423" type="curve"/>
      <point x="155" y="683" type="line"/>
    </contour>
    <contour>
      <point x="241" y="244" type="move" name="center"/>
    </contour>
    <contour>
      <point x="216" y="655" type="move" name="top"/>
    </contour>
  </outline>
</glyph>
<glyph name="j" format="1">
  <advance width="225"/>
  <unicode hex="006A"/>
  <outline>
    <contour>
      <point x="70" y="488" type="line"/>
      <point x="70" y="-53" type="line" smooth="yes"/>
      <point x="70" y="-102"/>
      <point x="50" y="-124"/>
      <point x="6" y="-124" type="curve" smooth="yes"/>
      <point x="-19" y="-124"/>
      <point x="-47" y="-121"/>
      <point x="-58" y="-120" type="curve"/>
      <point x="-58" y="-191" type="line"/>
      <point x="-49" y="-193"/>
      <point x="-20" y="-197"/>
      <point x="2" y="-197" type="curve" smooth="yes"/>
      <point x="110" y="-197"/>
      <point x="155" y="-146"/>
      <point x="155" y="-46" type="curve" smooth="yes"/>
      <point x="155" y="488" type="line"/>
    </contour>
    <contour>
      <point x="77" y="685"/>
      <point x="57" y="669"/>
      <point x="57" y="639" type="curve" smooth="yes"/>
      <point x="57" y="610" type="line" smooth="yes"/>
      <point x="57" y="581"/>
      <point x="77" y="565"/>
      <point x="112" y="565" type="curve" smooth="yes"/>
      <point x="148" y="565"/>
      <point x="168" y="581"/>
      <point x="168" y="610" type="curve" smooth="yes"/>
      <point x="168" y="639" type="line" smooth="yes"/>
      <point x="168" y="669"/>
      <point x="148" y="685"/>
      <point x="112" y="685" type="curve" smooth="yes"/>
    </contour>
    <contour>
      <point x="113" y="488" type="move" name="top"/>
    </contour>
  </outline>
</glyph>
<glyph name="m" format="1">
  <advance width="741"/>
  <unicode hex="006D"/>
  <outline>
    <contour>
      <point x="486" y="500"/>
      <point x="439" y="467"/>
      <point x="403" y="408" type="curve"/>
      <point x="385" y="468"/>
      <point x="343" y="500"/>
      <point x="281" y="500" type="curve" smooth="yes"/>
      <point x="231" y="500"/>
      <point x="185" y="469"/>
      <point x="150" y="415" type="curve"/>
      <point x="150" y="488" type="line"/>
      <point x="70" y="488" type="line"/>
      <point x="70" y="0" type="line"/>
      <point x="155" y="0" type="line"/>
      <point x="155" y="339" type="line"/>
      <point x="184" y="390"/>
      <point x="227" y="421"/>
      <point x="264" y="421" type="curve" smooth="yes"/>
      <point x="303" y="421"/>
      <point x="328" y="394"/>
      <point x="328" y="321" type="curve" smooth="yes"/>
      <point x="328" y="0" type="line"/>
      <point x="413" y="0" type="line"/>
      <point x="413" y="339" type="line"/>
      <point x="442" y="390"/>
      <point x="485" y="421"/>
      <point x="522" y="421" type="curve" smooth="yes"/>
      <point x="561" y="421"/>
      <point x="586" y="394"/>
      <point x="586" y="321" type="curve" smooth="yes"/>
      <point x="586" y="0" type="line"/>
      <point x="671" y="0" type="line"/>
      <point x="671" y="333" type="line" smooth="yes"/>
      <point x="671" y="440"/>
      <point x="624" y="500"/>
      <point x="539" y="500" type="curve" smooth="yes"/>
    </contour>
  </outline>
</glyph>
<glyph name="o" format="1">
  <advance width="472"/>
  <unicode hex="006F"/>
  <outline>
    <contour>
      <point x="114" y="500"/>
      <point x="60" y="431"/>
      <point x="60" y="318" type="curve" smooth="yes"/>
      <point x="60" y="170" type="line" smooth="yes"/>
      <point x="60" y="57"/>
      <point x="114" y="-12"/>
      <point x="236" y="-12" type="curve" smooth="yes"/>
      <point x="358" y="-12"/>
      <point x="412" y="57"/>
      <point x="412" y="170" type="curve" smooth="yes"/>
      <point x="412" y="318" type="line" smooth="yes"/>
      <point x="412" y="431"/>
      <point x="358" y="500"/>
      <point x="236" y="500" type="curve" smooth="yes"/>
    </contour>
    <contour>
      <point x="293" y="429"/>
      <point x="327" y="394"/>
      <point x="327" y="326" type="curve" smooth="yes"/>
      <point x="327" y="163" type="line" smooth="yes"/>
      <point x="327" y="95"/>
      <point x="293" y="59"/>
      <point x="236" y="59" type="curve" smooth="yes"/>
      <point x="179" y="59"/>
      <point x="145" y="95"/>
      <point x="145" y="163" type="curve" smooth="yes"/>
      <point x="145" y="325" type="line" smooth="yes"/>
      <point x="145" y="393"/>
      <point x="179" y="429"/>
      <point x="236" y="429" type="curve" smooth="yes"/>
    </contour>
    <contour>
      <point x="236" y="488" type="move" name="top"/>
    </contour>
  </outline>
</glyph>
<glyph name="s" format="1">
  <advance width="382"/>
  <unicode hex="0073"/>
  <outline>
    <contour>
      <point x="92" y="500"/>
      <point x="43" y="452"/>
      <point x="40" y="363" type="curve" smooth="yes"/>
      <point x="40" y="349" type="line" smooth="yes"/>
      <point x="40" y="300"/>
      <point x="66" y="263"/>
      <point x="125" y="236" type="curve" smooth="yes"/>
      <point x="222" y="193" type="line" smooth="yes"/>
      <point x="252" y="180"/>
      <point x="263" y="162"/>
      <point x="263" y="131" type="curve" smooth="yes"/>
      <point x="263" y="121" type="line" smooth="yes"/>
      <point x="263" y="81"/>
      <point x="243" y="63"/>
      <point x="176" y="63" type="curve" smooth="yes"/>
      <point x="143" y="63"/>
      <point x="94" y="73"/>
      <point x="53" y="85" type="curve"/>
      <point x="49" y="9" type="line"/>
      <point x="97" y="-3"/>
      <point x="141" y="-12"/>
      <point x="178" y="-12" type="curve" smooth="yes"/>
      <point x="297" y="-12"/>
      <point x="346" y="36"/>
      <point x="347" y="126" type="curve" smooth="yes"/>
      <point x="347" y="148" type="line" smooth="yes"/>
      <point x="347" y="198"/>
      <point x="320" y="238"/>
      <point x="262" y="265" type="curve" smooth="yes"/>
      <point x="168" y="309" type="line" smooth="yes"/>
      <point x="136" y="324"/>
      <point x="124" y="336"/>
      <point x="124" y="361" type="curve" smooth="yes"/>
      <point x="124" y="370" type="line" smooth="yes"/>
      <point x="124" y="406"/>
      <point x="150" y="428"/>
      <point x="214" y="428" type="curve" smooth="yes"/>
      <point x="243" y="428"/>
      <point x="274" y="424"/>
      <point x="309" y="416" type="curve"/>
      <point x="311" y="488" type="line"/>
      <point x="267" y="497"/>
      <point x="240" y="500"/>
      <point x="210" y="500" type="curve" smooth="yes"/>
    </contour>
    <contour>
      <point x="186" y="488" type="move" name="top"/>
    </contour>
    <contour>
      <point x="196" y="0" type="move" name="bottom"/>
    </contour>
  </outline>
</glyph>
<glyph name="t" format="1">
  <advance width="338"/>
  <unicode hex="0074"/>
  <outline>
    <contour>
      <point x="101" y="618" type="line"/>
      <point x="85" y="488" type="line"/>
      <point x="15" y="488" type="line"/>
      <point x="15" y="418" type="line"/>
      <point x="85" y="418" type="line"/>
      <point x="85" y="139" type="line" smooth="yes"/>
      <point x="85" y="31"/>
      <point x="133" y="-12"/>
      <point x="238" y="-12" type="curve" smooth="yes"/>
      <point x="268" y="-12"/>
      <point x="296" y="-6"/>
      <point x="318" y="0" type="curve"/>
      <point x="316" y="71" type="line"/>
      <point x="296" y="66"/>
      <point x="263" y="61"/>
      <point x="234" y="61" type="curve" smooth="yes"/>
      <point x="191" y="61"/>
      <point x="170" y="81"/>
      <point x="170" y="132" type="curve" smooth="yes"/>
      <point x="170" y="418" type="line"/>
      <point x="300" y="418" type="line"/>
      <point x="300" y="488" type="line"/>
      <point x="170" y="488" type="line"/>
      <point x="170" y="618" type="line"/>
    </contour>
    <contour>
      <point x="169" y="244" type="move" name="center"/>
    </contour>
    <contour>
      <point x="188" y="0" type="move" name="bottom"/>
    </contour>
    <contour>
      <point x="295" y="488" type="move" name="topleft"/>
    </contour>
  </outline>
</glyph>
<glyph name="u" format="1">
  <advance width="480"/>
  <unicode hex="0075"/>
  <outline>
    <contour>
      <point x="325" y="488" type="line"/>
      <point x="325" y="148" type="line"/>
      <point x="295" y="97"/>
      <point x="253" y="67"/>
      <point x="217" y="67" type="curve" smooth="yes"/>
      <point x="180" y="67"/>
      <point x="155" y="97"/>
      <point x="155" y="170" type="curve" smooth="yes"/>
      <point x="155" y="488" type="line"/>
      <point x="70" y="488" type="line"/>
      <point x="70" y="155" type="line" smooth="yes"/>
      <point x="70" y="43"/>
      <point x="121" y="-12"/>
      <point x="200" y="-12" type="curve" smooth="yes"/>
      <point x="249" y="-12"/>
      <point x="294" y="17"/>
      <point x="330" y="70" type="curve"/>
      <point x="330" y="0" type="line"/>
      <point x="410" y="0" type="line"/>
      <point x="410" y="488" type="line"/>
    </contour>
    <contour>
      <point x="432" y="10" type="move" name="ogonek"/>
    </contour>
    <contour>
      <point x="240" y="488" type="move" name="top"/>
    </contour>
  </outline>
</glyph>
<glyph name="w" format="1">
  <advance width="678"/>
  <unicode hex="0077"/>
  <outline>
    <contour>
      <point x="568" y="488" type="line"/>
      <point x="488" y="75" type="line"/>
      <point x="394" y="488" type="line"/>
      <point x="284" y="488" type="line"/>
      <point x="189" y="75" type="line"/>
      <point x="110" y="488" type="line"/>
      <point x="20" y="488" type="line"/>
      <point x="132" y="0" type="line"/>
      <point x="239" y="0" type="line"/>
      <point x="339" y="414" type="line"/>
      <point x="438" y="0" type="line"/>
      <point x="545" y="0" type="line"/>
      <point x="658" y="488" type="line"/>
    </contour>
    <contour>
      <point x="339" y="488" type="move" name="top"/>
    </contour>
  </outline>
</glyph>
<glyph name="y" format="1">
  <advance width="436"/>
  <unicode hex="0079"/>
  <outline>
    <contour>
      <point x="338" y="488" type="line"/>
      <point x="208" y="61" type="line"/>
      <point x="103" y="488" type="line"/>
      <point x="10" y="488" type="line"/>
      <point x="149" y="0" type="line"/>
      <point x="181" y="0" type="line"/>
      <point x="117" y="-185" type="line"/>
      <point x="202" y="-185" type="line"/>
      <point x="426" y="488" type="line"/>
    </contour>
    <contour>
      <point x="218" y="488" type="move" name="top"/>
    </contour>
  </outline>
</glyph>
<glyph name="z" format="1">
  <advance width="401"/>
  <unicode hex="007A"/>
  <outline>
    <contour>
      <point x="40" y="488" type="line"/>
      <point x="40" y="415" type="line"/>
      <point x="262" y="415" type="line"/>
      <point x="35" y="63" type="line"/>
      <point x="35" y="0" type="line"/>
      <point x="361" y="0" type="line"/>
      <point x="361" y="73" type="line"/>
      <point x="135" y="73" type="line"/>
      <point x="361" y="425" type="line"/>
      <point x="361" y="488" type="line"/>
    </contour>
    <contour>
      <point x="209" y="488" type="move" name="top"/>
    </contour>
  </outline>
</glyph>
<glyph name="braceleft" format="1">
  <advance width="256"/>
  <unicode hex="007B"/>
  <outline>
    <contour>
      <point x="132" y="747"/>
      <point x="95" y="722"/>
      <point x="95" y="567" type="curve" smooth="yes"/>
      <point x="95" y="442" type="line" smooth="yes"/>
      <point x="95" y="381"/>
      <point x="78" y="362"/>
      <point x="30" y="362" type="curve" smooth="yes"/>
      <point x="5" y="362" type="line"/>
      <point x="5" y="292" type="line"/>
      <point x="30" y="292" type="line" smooth="yes"/>
      <point x="78" y="292"/>
      <point x="95" y="274"/>
      <point x="95" y="212" type="curve" smooth="yes"/>
      <point x="95" y="88" type="line" smooth="yes"/>
      <point x="95" y="-64"/>
      <point x="129" y="-92"/>
      <point x="266" y="-92" type="curve"/>
      <point x="266" y="-22" type="line"/>
      <point x="196" y="-22"/>
      <point x="180" y="-12"/>
      <point x="180" y="67" type="curve" smooth="yes"/>
      <point x="180" y="212" type="line" smooth="yes"/>
      <point x="180" y="280"/>
      <point x="162" y="314"/>
      <point x="122" y="327" type="curve"/>
      <point x="163" y="341"/>
      <point x="180" y="374"/>
      <point x="180" y="442" type="curve" smooth="yes"/>
      <point x="180" y="588" type="line" smooth="yes"/>
      <point x="180" y="663"/>
      <point x="192" y="677"/>
      <point x="266" y="677" type="curve"/>
      <point x="266" y="747" type="line"/>
    </contour>
  </outline>
</glyph>
<glyph name="cent" format="1">
  <advance width="390"/>
  <unicode hex="00A2"/>
  <outline>
    <contour>
      <point x="185" y="576" type="line"/>
      <point x="185" y="495" type="line"/>
      <point x="95" y="479"/>
      <point x="55" y="416"/>
      <point x="55" y="318" type="curve" smooth="yes"/>
      <point x="55" y="170" type="line" smooth="yes"/>
      <point x="55" y="70"/>
      <point x="96" y="9"/>
      <point x="185" y="-7" type="curve"/>
      <point x="185" y="-88" type="line"/>
      <point x="260" y="-88" type="line"/>
      <point x="260" y="-11" type="line"/>
      <point x="284" y="-10"/>
      <point x="303" y="-7"/>
      <point x="338" y="-1" type="curve"/>
      <point x="336" y="74" type="line"/>
      <point x="301" y="67"/>
      <point x="278" y="63"/>
      <point x="238" y="63" type="curve" smooth="yes"/>
      <point x="176" y="63"/>
      <point x="140" y="96"/>
      <point x="140" y="164" type="curve" smooth="yes"/>
      <point x="140" y="325" type="line" smooth="yes"/>
      <point x="140" y="389"/>
      <point x="173" y="425"/>
      <point x="238" y="425" type="curve" smooth="yes"/>
      <point x="278" y="425"/>
      <point x="301" y="421"/>
      <point x="336" y="414" type="curve"/>
      <point x="338" y="489" type="line"/>
      <point x="303" y="495"/>
      <point x="284" y="498"/>
      <point x="260" y="499" type="curve"/>
      <point x="260" y="576" type="line"/>
    </contour>
  </outline>
</glyph>
<glyph name="sterling" format="1">
  <advance width="397"/>
  <unicode hex="00A3"/>
  <outline>
    <contour>
      <point x="138" y="613"/>
      <point x="85" y="563"/>
      <point x="85" y="457" type="curve" smooth="yes"/>
      <point x="85" y="375" type="line"/>
      <point x="15" y="375" type="line"/>
      <point x="15" y="305" type="line"/>
      <point x="85" y="305" type="line"/>
      <point x="85" y="166" type="line" smooth="yes"/>
      <point x="85" y="128"/>
      <point x="73" y="94"/>
      <point x="45" y="60" type="curve"/>
      <point x="45" y="0" type="line"/>
      <point x="392" y="0" type="line"/>
      <point x="392" y="74" type="line"/>
      <point x="129" y="74" type="line"/>
      <point x="156" y="95"/>
      <point x="170" y="127"/>
      <point x="170" y="184" type="curve" smooth="yes"/>
      <point x="170" y="305" type="line"/>
      <point x="265" y="305" type="line"/>
      <point x="265" y="375" type="line"/>
      <point x="170" y="375" type="line"/>
      <point x="170" y="462" type="line" smooth="yes"/>
      <point x="170" y="517"/>
      <point x="194" y="543"/>
      <point x="265" y="543" type="curve" smooth="yes"/>
      <point x="293" y="543"/>
      <point x="327" y="536"/>
      <point x="347" y="530" type="curve"/>
      <point x="347" y="598" type="line"/>
      <point x="320" y="606"/>
      <point x="283" y="613"/>
      <point x="252" y="613" type="curve" smooth="yes"/>
    </contour>
  </outline>
</glyph>
<glyph name="currency" format="1">
  <advance width="470"/>
  <unicode hex="00A4"/>
  <outline>
    <contour>
      <point x="338" y="466" type="line"/>
      <point x="310" y="484"/>
      <point x="275" y="494"/>
      <point x="233" y="494" type="curve" smooth="yes"/>
      <point x="192" y="494"/>
      <point x="158" y="485"/>
      <point x="130" y="468" type="curve"/>
      <point x="76" y="523" type="line"/>
      <point x="20" y="467" type="line"/>
      <point x="78" y="410" type="line"/>
      <point x="65" y="384"/>
      <point x="59" y="358"/>
      <point x="59" y="323" type="curve" smooth="yes"/>
      <point x="59" y="303" type="line" smooth="yes"/>
      <point x="59" y="265"/>
      <point x="67" y="237"/>
      <point x="82" y="210" type="curve"/>
      <point x="20" y="149" type="line"/>
      <point x="76" y="93" type="line"/>
      <point x="136" y="154" type="line"/>
      <point x="163" y="139"/>
      <point x="195" y="132"/>
      <point x="233" y="132" type="curve" smooth="yes"/>
      <point x="272" y="132"/>
      <point x="305" y="140"/>
      <point x="332" y="156" type="curve"/>
      <point x="394" y="93" type="line"/>
      <point x="450" y="149" type="line"/>
      <point x="385" y="213" type="line"/>
      <point x="399" y="240"/>
      <point x="406" y="266"/>
      <point x="406" y="303" type="curve" smooth="yes"/>
      <point x="406" y="323" type="line" smooth="yes"/>
      <point x="406" y="357"/>
      <point x="401" y="382"/>
      <point x="389" y="407" type="curve"/>
      <point x="450" y="467" type="line"/>
      <point x="394" y="523" type="line"/>
    </contour>
    <contour>
      <point x="300" y="421"/>
      <point x="324" y="378"/>
      <point x="324" y="323" type="curve" smooth="yes"/>
      <point x="324" y="303" type="line" smooth="yes"/>
      <point x="324" y="247"/>
      <point x="299" y="204"/>
      <point x="233" y="204" type="curve" smooth="yes"/>
      <point x="166" y="204"/>
      <point x="141" y="247"/>
      <point x="141" y="303" type="curve" smooth="yes"/>
      <point x="141" y="323" type="line" smooth="yes"/>
      <point x="141" y="378"/>
      <point x="167" y="421"/>
      <point x="233" y="421" type="curve" smooth="yes"/>
    </contour>
  </outline>
</glyph>
<glyph name="yen" format="1">
  <advance width="455"/>
  <unicode hex="00A5"/>
  <outline>
    <contour>
      <point x="365" y="601" type="line"/>
      <point x="228" y="280" type="line"/>
      <point x="90" y="601" type="line"/>
      <point x="-5" y="601" type="line"/>
      <point x="159" y="259" type="line"/>
      <point x="90" y="259" type="line"/>
      <point x="90" y="189" type="line"/>
      <point x="185" y="189" type="line"/>
      <point x="185" y="148" type="line"/>
      <point x="90" y="148" type="line"/>
      <point x="90" y="78" type="line"/>
      <point x="185" y="78" type="line"/>
      <point x="185" y="0" type="line"/>
      <point x="270" y="0" type="line"/>
      <point x="270" y="78" type="line"/>
      <point x="364" y="78" type="line"/>
      <point x="364" y="148" type="line"/>
      <point x="270" y="148" type="line"/>
      <point x="270" y="189" type="line"/>
      <point x="364" y="189" type="line"/>
      <point x="364" y="259" type="line"/>
      <point x="296" y="259" type="line"/>
      <point x="460" y="601" type="line"/>
    </contour>
  </outline>
</glyph>
<glyph name="brokenbar" format="1">
  <advance width="225"/>
  <unicode hex="00A6"/>
  <outline>
    <contour>
      <point x="70" y="758" type="line"/>
      <point x="70" y="388" type="line"/>
      <point x="155" y="388" type="line"/>
      <point x="155" y="758" type="line"/>
    </contour>
    <contour>
      <point x="70" y="266" type="line"/>
      <point x="70" y="-104" type="line"/>
      <point x="155" y="-104" type="line"/>
      <point x="155" y="266" type="line"/>
    </contour>
  </outline>
</glyph>
<glyph name="section" format="1">
  <advance width="418"/>
  <unicode hex="00A7"/>
  <outline>
    <contour>
      <point x="99" y="695"/>
      <point x="55" y="648"/>
      <point x="55" y="556" type="curve" smooth="yes"/>
      <point x="55" y="528" type="line" smooth="yes"/>
      <point x="55" y="475"/>
      <point x="83" y="435"/>
      <point x="123" y="421" type="curve"/>
      <point x="67" y="414"/>
      <point x="25" y="362"/>
      <point x="25" y="292" type="curve" smooth="yes"/>
      <point x="25" y="268" type="line" smooth="yes"/>
      <point x="25" y="209"/>
      <point x="55" y="174"/>
      <point x="133" y="147" type="curve" smooth="yes"/>
      <point x="240" y="110" type="line" smooth="yes"/>
      <point x="270" y="100"/>
      <point x="281" y="80"/>
      <point x="281" y="46" type="curve" smooth="yes"/>
      <point x="281" y="13" type="line" smooth="yes"/>
      <point x="281" y="-28"/>
      <point x="262" y="-44"/>
      <point x="193" y="-44" type="curve" smooth="yes"/>
      <point x="144" y="-44"/>
      <point x="107" y="-37"/>
      <point x="72" y="-29" type="curve"/>
      <point x="70" y="-104" type="line"/>
      <point x="114" y="-113"/>
      <point x="148" y="-119"/>
      <point x="193" y="-119" type="curve" smooth="yes"/>
      <point x="320" y="-119"/>
      <point x="368" y="-72"/>
      <point x="368" y="21" type="curve" smooth="yes"/>
      <point x="368" y="59" type="line" smooth="yes"/>
      <point x="368" y="109"/>
      <point x="343" y="148"/>
      <point x="304" y="163" type="curve"/>
      <point x="364" y="175"/>
      <point x="398" y="224"/>
      <point x="398" y="284" type="curve" smooth="yes"/>
      <point x="398" y="315" type="line" smooth="yes"/>
      <point x="398" y="365"/>
      <point x="367" y="406"/>
      <point x="290" y="435" type="curve" smooth="yes"/>
      <point x="183" y="476" type="line" smooth="yes"/>
      <point x="153" y="488"/>
      <point x="142" y="503"/>
      <point x="142" y="531" type="curve" smooth="yes"/>
      <point x="142" y="564" type="line" smooth="yes"/>
      <point x="142" y="605"/>
      <point x="161" y="624"/>
      <point x="226" y="624" type="curve" smooth="yes"/>
      <point x="258" y="624"/>
      <point x="289" y="620"/>
      <point x="324" y="612" type="curve"/>
      <point x="326" y="683" type="line"/>
      <point x="282" y="692"/>
      <point x="254" y="695"/>
      <point x="222" y="695" type="curve" smooth="yes"/>
    </contour>
    <contour>
      <point x="250" y="367" type="line" smooth="yes"/>
      <point x="291" y="355"/>
      <point x="311" y="333"/>
      <point x="311" y="305" type="curve" smooth="yes"/>
      <point x="311" y="282" type="line" smooth="yes"/>
      <point x="311" y="237"/>
      <point x="280" y="204"/>
      <point x="219" y="201" type="curve"/>
      <point x="173" y="216" type="line" smooth="yes"/>
      <point x="125" y="232"/>
      <point x="112" y="247"/>
      <point x="112" y="269" type="curve" smooth="yes"/>
      <point x="112" y="294" type="line" smooth="yes"/>
      <point x="112" y="340"/>
      <point x="147" y="377"/>
      <point x="213" y="378" type="curve"/>
    </contour>
  </outline>
</glyph>
<glyph name="dieresis" format="1">
  <advance width="331"/>
  <unicode hex="00A8"/>
  <outline>
    <contour>
      <point x="218" y="682"/>
      <point x="198" y="667"/>
      <point x="198" y="640" type="curve" smooth="yes"/>
      <point x="198" y="611" type="line" smooth="yes"/>
      <point x="198" y="586"/>
      <point x="218" y="570"/>
      <point x="249" y="570" type="curve" smooth="yes"/>
      <point x="282" y="570"/>
      <point x="301" y="586"/>
      <point x="301" y="611" type="curve" smooth="yes"/>
      <point x="301" y="640" type="line" smooth="yes"/>
      <point x="301" y="667"/>
      <point x="282" y="682"/>
      <point x="249" y="682" type="curve" smooth="yes"/>
    </contour>
    <contour>
      <point x="50" y="682"/>
      <point x="30" y="667"/>
      <point x="30" y="640" type="curve" smooth="yes"/>
      <point x="30" y="611" type="line" smooth="yes"/>
      <point x="30" y="586"/>
      <point x="50" y="570"/>
      <point x="81" y="570" type="curve" smooth="yes"/>
      <point x="114" y="570"/>
      <point x="133" y="586"/>
      <point x="133" y="611" type="curve" smooth="yes"/>
      <point x="133" y="640" type="line" smooth="yes"/>
      <point x="133" y="667"/>
      <point x="114" y="682"/>
      <point x="81" y="682" type="curve" smooth="yes"/>
    </contour>
    <contour>
      <point x="166" y="488" type="move" name="_top"/>
    </contour>
  </outline>
</glyph>
<glyph name="copyright" format="1">
  <advance width="646"/>
  <unicode hex="00A9"/>
  <outline>
    <contour>
      <point x="143" y="616"/>
      <point x="70" y="526"/>
      <point x="70" y="404" type="curve" smooth="yes"/>
      <point x="70" y="197" type="line" smooth="yes"/>
      <point x="70" y="75"/>
      <point x="143" y="-15"/>
      <point x="323" y="-15" type="curve" smooth="yes"/>
      <point x="503" y="-15"/>
      <point x="576" y="75"/>
      <point x="576" y="197" type="curve" smooth="yes"/>
      <point x="576" y="404" type="line" smooth="yes"/>
      <point x="576" y="526"/>
      <point x="503" y="616"/>
      <point x="323" y="616" type="curve" smooth="yes"/>
    </contour>
    <contour>
      <point x="250" y="480"/>
      <point x="203" y="429"/>
      <point x="203" y="333" type="curve" smooth="yes"/>
      <point x="203" y="277" type="line" smooth="yes"/>
      <point x="203" y="179"/>
      <point x="249" y="129"/>
      <point x="341" y="129" type="curve" smooth="yes"/>
      <point x="366" y="129"/>
      <point x="385" y="131"/>
      <point x="419" y="136" type="curve"/>
      <point x="417" y="202" type="line"/>
      <point x="392" y="199"/>
      <point x="370" y="197"/>
      <point x="341" y="197" type="curve" smooth="yes"/>
      <point x="306" y="197"/>
      <point x="284" y="224"/>
      <point x="284" y="278" type="curve" smooth="yes"/>
      <point x="284" y="333" type="line" smooth="yes"/>
      <point x="284" y="388"/>
      <point x="306" y="412"/>
      <point x="341" y="412" type="curve" smooth="yes"/>
      <point x="370" y="412"/>
      <point x="392" y="410"/>
      <point x="417" y="407" type="curve"/>
      <point x="419" y="473" type="line"/>
      <point x="395" y="477"/>
      <point x="366" y="480"/>
      <point x="341" y="480" type="curve" smooth="yes"/>
    </contour>
    <contour>
      <point x="440" y="550"/>
      <point x="505" y="496"/>
      <point x="505" y="416" type="curve" smooth="yes"/>
      <point x="505" y="186" type="line" smooth="yes"/>
      <point x="505" y="106"/>
      <point x="440" y="51"/>
      <point x="323" y="51" type="curve" smooth="yes"/>
      <point x="206" y="51"/>
      <point x="141" y="106"/>
      <point x="141" y="186" type="curve" smooth="yes"/>
      <point x="141" y="415" type="line" smooth="yes"/>
      <point x="141" y="495"/>
      <point x="206" y="550"/>
      <point x="323" y="550" type="curve" smooth="yes"/>
    </contour>
  </outline>
</glyph>
<glyph name="ordfeminine" format="1">
  <advance width="469"/>
  <unicode hex="00AA"/>
  <outline>
    <contour>
      <point x="199" y="667"/>
      <point x="143" y="659"/>
      <point x="99" y="652" type="curve"/>
      <point x="99" y="582" type="line"/>
      <point x="134" y="588"/>
      <point x="195" y="597"/>
      <point x="234" y="597" type="curve" smooth="yes"/>
      <point x="288" y="597"/>
      <point x="314" y="575"/>
      <point x="314" y="516" type="curve" smooth="yes"/>
      <point x="314" y="490" type="line"/>
      <point x="284" y="496"/>
      <point x="240" y="503"/>
      <point x="211" y="503" type="curve" smooth="yes"/>
      <point x="116" y="503"/>
      <point x="60" y="445"/>
      <point x="60" y="376" type="curve" smooth="yes"/>
      <point x="60" y="348" type="line" smooth="yes"/>
      <point x="60" y="266"/>
      <point x="110" y="214"/>
      <point x="187" y="214" type="curve" smooth="yes"/>
      <point x="234" y="214"/>
      <point x="279" y="244"/>
      <point x="318" y="304" type="curve"/>
      <point x="318" y="226" type="line"/>
      <point x="399" y="226" type="line"/>
      <point x="399" y="506" type="line" smooth="yes"/>
      <point x="399" y="618"/>
      <point x="348" y="667"/>
      <point x="234" y="667" type="curve" smooth="yes"/>
    </contour>
    <contour>
      <point x="60" y="73" type="line"/>
      <point x="60" y="0" type="line"/>
      <point x="399" y="0" type="line"/>
      <point x="399" y="73" type="line"/>
    </contour>
    <contour>
      <point x="253" y="435"/>
      <point x="287" y="433"/>
      <point x="314" y="428" type="curve"/>
      <point x="314" y="366" type="line"/>
      <point x="282" y="310"/>
      <point x="241" y="290"/>
      <point x="206" y="290" type="curve" smooth="yes"/>
      <point x="171" y="290"/>
      <point x="146" y="314"/>
      <point x="146" y="354" type="curve" smooth="yes"/>
      <point x="146" y="365" type="line" smooth="yes"/>
      <point x="146" y="407"/>
      <point x="176" y="435"/>
      <point x="232" y="435" type="curve" smooth="yes"/>
    </contour>
  </outline>
</glyph>
<glyph name="logicalnot" format="1">
  <advance width="390"/>
  <unicode hex="00AC"/>
  <outline>
    <contour>
      <point x="14" y="335" type="line"/>
      <point x="14" y="265" type="line"/>
      <point x="299" y="265" type="line"/>
      <point x="299" y="113" type="line"/>
      <point x="375" y="113" type="line"/>
      <point x="375" y="335" type="line"/>
    </contour>
  </outline>
</glyph>
<glyph name="macron" format="1">
  <advance width="275"/>
  <unicode hex="00AF"/>
  <outline>
    <contour>
      <point x="30" y="681" type="line"/>
      <point x="30" y="606" type="line"/>
      <point x="245" y="606" type="line"/>
      <point x="245" y="681" type="line"/>
    </contour>
    <contour>
      <point x="138" y="488" type="move" name="_top"/>
    </contour>
  </outline>
</glyph>
<glyph name="degree" format="1">
  <advance width="390"/>
  <unicode hex="00B0"/>
  <outline>
    <contour>
      <point x="89" y="695"/>
      <point x="35" y="636"/>
      <point x="35" y="528" type="curve" smooth="yes"/>
      <point x="35" y="506" type="line" smooth="yes"/>
      <point x="35" y="398"/>
      <point x="89" y="339"/>
      <point x="195" y="339" type="curve" smooth="yes"/>
      <point x="301" y="339"/>
      <point x="354" y="398"/>
      <point x="354" y="506" type="curve"/>
      <point x="354" y="528" type="line" smooth="yes"/>
      <point x="354" y="636"/>
      <point x="301" y="695"/>
      <point x="195" y="695" type="curve" smooth="yes"/>
    </contour>
    <contour>
      <point x="247" y="626"/>
      <point x="277" y="596"/>
      <point x="277" y="528" type="curve" smooth="yes"/>
      <point x="277" y="506" type="line" smooth="yes"/>
      <point x="277" y="438"/>
      <point x="246" y="408"/>
      <point x="195" y="408" type="curve" smooth="yes"/>
      <point x="143" y="408"/>
      <point x="112" y="438"/>
      <point x="112" y="506" type="curve" smooth="yes"/>
      <point x="112" y="528" type="line" smooth="yes"/>
      <point x="112" y="596"/>
      <point x="143" y="626"/>
      <point x="195" y="626" type="curve" smooth="yes"/>
    </contour>
  </outline>
</glyph>
<glyph name="twosuperior" format="1">
  <advance width="400"/>
  <unicode hex="00B2"/>
  <outline>
    <contour>
      <point x="152" y="760"/>
      <point x="114" y="753"/>
      <point x="81" y="744" type="curve"/>
      <point x="81" y="679" type="line"/>
      <point x="108" y="688"/>
      <point x="149" y="696"/>
      <point x="179" y="696" type="curve" smooth="yes"/>
      <point x="232" y="696"/>
      <point x="251" y="681"/>
      <point x="251" y="649" type="curve" smooth="yes"/>
      <point x="251" y="633" type="line" smooth="yes"/>
      <point x="251" y="604"/>
      <point x="246" y="591"/>
      <point x="220" y="561" type="curve" smooth="yes"/>
      <point x="72" y="391" type="line"/>
      <point x="72" y="331" type="line"/>
      <point x="328" y="331" type="line"/>
      <point x="328" y="397" type="line"/>
      <point x="167" y="397" type="line"/>
      <point x="264" y="501" type="line" smooth="yes"/>
      <point x="313" y="554"/>
      <point x="327" y="589"/>
      <point x="327" y="634" type="curve" smooth="yes"/>
      <point x="327" y="652" type="line" smooth="yes"/>
      <point x="327" y="721"/>
      <point x="284" y="760"/>
      <point x="179" y="760" type="curve" smooth="yes"/>
    </contour>
  </outline>
</glyph>
<glyph name="threesuperior" format="1">
  <advance width="400"/>
  <unicode hex="00B3"/>
  <outline>
    <contour>
      <point x="148" y="760"/>
      <point x="112" y="756"/>
      <point x="79" y="751" type="curve"/>
      <point x="79" y="689" type="line"/>
      <point x="105" y="693"/>
      <point x="145" y="699"/>
      <point x="174" y="699" type="curve" smooth="yes"/>
      <point x="216" y="699"/>
      <point x="234" y="685"/>
      <point x="234" y="652" type="curve" smooth="yes"/>
      <point x="234" y="639" type="line" smooth="yes"/>
      <point x="234" y="597"/>
      <point x="217" y="577"/>
      <point x="166" y="577" type="curve" smooth="yes"/>
      <point x="108" y="577" type="line"/>
      <point x="108" y="518" type="line"/>
      <point x="166" y="518" type="line" smooth="yes"/>
      <point x="221" y="518"/>
      <point x="242" y="497"/>
      <point x="242" y="454" type="curve" smooth="yes"/>
      <point x="242" y="441" type="line" smooth="yes"/>
      <point x="242" y="406"/>
      <point x="222" y="385"/>
      <point x="178" y="385" type="curve" smooth="yes"/>
      <point x="149" y="385"/>
      <point x="105" y="389"/>
      <point x="79" y="393" type="curve"/>
      <point x="79" y="332" type="line"/>
      <point x="112" y="327"/>
      <point x="151" y="323"/>
      <point x="176" y="323" type="curve" smooth="yes"/>
      <point x="271" y="323"/>
      <point x="321" y="374"/>
      <point x="321" y="445" type="curve" smooth="yes"/>
      <point x="321" y="452" type="line" smooth="yes"/>
      <point x="321" y="497"/>
      <point x="296" y="535"/>
      <point x="251" y="553" type="curve"/>
      <point x="294" y="573"/>
      <point x="311" y="601"/>
      <point x="311" y="645" type="curve" smooth="yes"/>
      <point x="311" y="652" type="line" smooth="yes"/>
      <point x="311" y="718"/>
      <point x="267" y="760"/>
      <point x="174" y="760" type="curve" smooth="yes"/>
    </contour>
  </outline>
</glyph>
<glyph name="paragraph" format="1">
  <advance width="546"/>
  <unicode hex="00B6"/>
  <outline>
    <contour>
      <point x="144" y="683" type="line" smooth="yes"/>
      <point x="61" y="683"/>
      <point x="20" y="636"/>
      <point x="20" y="560" type="curve" smooth="yes"/>
      <point x="20" y="433" type="line" smooth="yes"/>
      <point x="20" y="354"/>
      <point x="64" y="313"/>
      <point x="144" y="313" type="curve" smooth="yes"/>
      <point x="194" y="313" type="line"/>
      <point x="194" y="-185" type="line"/>
      <point x="280" y="-185" type="line"/>
      <point x="280" y="683" type="line"/>
    </contour>
    <contour>
      <point x="194" y="388" type="line"/>
      <point x="154" y="388" type="line" smooth="yes"/>
      <point x="117" y="388"/>
      <point x="102" y="405"/>
      <point x="102" y="458" type="curve"/>
      <point x="102" y="540" type="line" smooth="yes"/>
      <point x="102" y="594"/>
      <point x="117" y="610"/>
      <point x="154" y="610" type="curve" smooth="yes"/>
      <point x="194" y="610" type="line"/>
    </contour>
    <contour>
      <point x="385" y="683" type="line"/>
      <point x="385" y="-185" type="line"/>
      <point x="471" y="-185" type="line"/>
      <point x="471" y="683" type="line"/>
    </contour>
  </outline>
</glyph>
<glyph name="cedilla" format="1">
  <advance width="204"/>
  <unicode hex="00B8"/>
  <outline>
    <contour>
      <point x="70" y="28" type="line"/>
      <point x="43" y="-59" type="line"/>
      <point x="43" y="-80" type="line"/>
      <point x="73" y="-80" type="line" smooth="yes"/>
      <point x="96" y="-80"/>
      <point x="107" y="-86"/>
      <point x="107" y="-106" type="curve"/>
      <point x="107" y="-119" type="line" smooth="yes"/>
      <point x="107" y="-133"/>
      <point x="95" y="-143"/>
      <point x="66" y="-143" type="curve" smooth="yes"/>
      <point x="56" y="-143"/>
      <point x="44" y="-141"/>
      <point x="30" y="-139" type="curve"/>
      <point x="30" y="-192" type="line"/>
      <point x="48" y="-195"/>
      <point x="63" y="-197"/>
      <point x="79" y="-197" type="curve" smooth="yes"/>
      <point x="143" y="-197"/>
      <point x="174" y="-173"/>
      <point x="174" y="-120" type="curve"/>
      <point x="174" y="-105" type="line" smooth="yes"/>
      <point x="174" y="-67"/>
      <point x="150" y="-41"/>
      <point x="122" y="-41" type="curve" smooth="yes"/>
      <point x="112" y="-41" type="line"/>
      <point x="133" y="28" type="line"/>
    </contour>
    <contour>
      <point x="102" y="0" type="move" name="_bottom"/>
    </contour>
  </outline>
</glyph>
<glyph name="guillemotright" format="1">
  <advance width="488"/>
  <unicode hex="00BB"/>
  <outline>
    <contour>
      <point x="235" y="438" type="line"/>
      <point x="328" y="268" type="line"/>
      <point x="235" y="98" type="line"/>
      <point x="323" y="98" type="line"/>
      <point x="423" y="268" type="line"/>
      <point x="323" y="438" type="line"/>
    </contour>
    <contour>
      <point x="65" y="438" type="line"/>
      <point x="158" y="268" type="line"/>
      <point x="65" y="98" type="line"/>
      <point x="153" y="98" type="line"/>
      <point x="253" y="268" type="line"/>
      <point x="153" y="438" type="line"/>
    </contour>
  </outline>
</glyph>
<glyph name="AE" format="1">
  <advance width="772"/>
  <unicode hex="00C6"/>
  <outline>
    <contour>
      <point x="306" y="655" type="line"/>
      <point x="13" y="0" type="line"/>
      <point x="102" y="0" type="line"/>
      <point x="168" y="152" type="line"/>
      <point x="362" y="152" type="line"/>
      <point x="362" y="0" type="line"/>
      <point x="707" y="0" type="line"/>
      <point x="707" y="77" type="line"/>
      <point x="447" y="77" type="line"/>
      <point x="447" y="295" type="line"/>
      <point x="687" y="295" type="line"/>
      <point x="687" y="371" type="line"/>
      <point x="447" y="371" type="line"/>
      <point x="447" y="578" type="line"/>
      <point x="707" y="578" type="line"/>
      <point x="707" y="655" type="line"/>
    </contour>
    <contour>
      <point x="362" y="228" type="line"/>
      <point x="201" y="228" type="line"/>
      <point x="362" y="597" type="line"/>
    </contour>
    <contour>
      <point x="533" y="655" type="move" name="top"/>
    </contour>
  </outline>
</glyph>
<glyph name="Ccedilla" format="1">
  <advance width="476"/>
  <unicode hex="00C7"/>
  <outline>
    <contour>
      <point x="127" y="667"/>
      <point x="70" y="601"/>
      <point x="70" y="465" type="curve" smooth="yes"/>
      <point x="70" y="190" type="line" smooth="yes"/>
      <point x="70" y="72"/>
      <point x="112" y="5"/>
      <point x="229" y="-9" type="curve"/>
      <point x="214" y="-59" type="line"/>
      <point x="214" y="-80" type="line"/>
      <point x="244" y="-80" type="line" smooth="yes"/>
      <point x="267" y="-80"/>
      <point x="277" y="-86"/>
      <point x="278" y="-106" type="curve"/>
      <point x="278" y="-119" type="line" smooth="yes"/>
      <point x="278" y="-133"/>
      <point x="266" y="-143"/>
      <point x="237" y="-143" type="curve" smooth="yes"/>
      <point x="227" y="-143"/>
      <point x="215" y="-141"/>
      <point x="201" y="-139" type="curve"/>
      <point x="201" y="-192" type="line"/>
      <point x="219" y="-195"/>
      <point x="234" y="-197"/>
      <point x="250" y="-197" type="curve" smooth="yes"/>
      <point x="314" y="-197"/>
      <point x="345" y="-173"/>
      <point x="345" y="-120" type="curve" smooth="yes"/>
      <point x="345" y="-105" type="line" smooth="yes"/>
      <point x="345" y="-67"/>
      <point x="321" y="-41"/>
      <point x="293" y="-41" type="curve" smooth="yes"/>
      <point x="283" y="-41" type="line"/>
      <point x="292" y="-12" type="line"/>
      <point x="334" y="-11"/>
      <point x="380" y="-2"/>
      <point x="421" y="4" type="curve"/>
      <point x="419" y="81" type="line"/>
      <point x="386" y="75"/>
      <point x="332" y="65"/>
      <point x="283" y="65" type="curve" smooth="yes"/>
      <point x="191" y="65"/>
      <point x="155" y="99"/>
      <point x="155" y="185" type="curve" smooth="yes"/>
      <point x="155" y="471" type="line" smooth="yes"/>
      <point x="155" y="558"/>
      <point x="192" y="592"/>
      <point x="283" y="592" type="curve" smooth="yes"/>
      <point x="332" y="592"/>
      <point x="386" y="582"/>
      <point x="419" y="576" type="curve"/>
      <point x="421" y="651" type="line"/>
      <point x="377" y="658"/>
      <point x="328" y="667"/>
      <point x="283" y="667" type="curve" smooth="yes"/>
    </contour>
  </outline>
</glyph>
<glyph name="Eth" format="1">
  <advance width="576"/>
  <unicode hex="00D0"/>
  <outline>
    <contour>
      <point x="186" y="667"/>
      <point x="125" y="665"/>
      <point x="80" y="663" type="curve"/>
      <point x="80" y="373" type="line"/>
      <point x="10" y="373" type="line"/>
      <point x="10" y="303" type="line"/>
      <point x="80" y="303" type="line"/>
      <point x="80" y="-6" type="line"/>
      <point x="142" y="-10"/>
      <point x="191" y="-12"/>
      <point x="258" y="-12" type="curve" smooth="yes"/>
      <point x="425" y="-12"/>
      <point x="511" y="79"/>
      <point x="511" y="241" type="curve" smooth="yes"/>
      <point x="511" y="405" type="line" smooth="yes"/>
      <point x="511" y="575"/>
      <point x="421" y="667"/>
      <point x="263" y="667" type="curve" smooth="yes"/>
    </contour>
    <contour>
      <point x="362" y="595"/>
      <point x="426" y="534"/>
      <point x="426" y="411" type="curve" smooth="yes"/>
      <point x="426" y="234" type="line" smooth="yes"/>
      <point x="426" y="120"/>
      <point x="358" y="61"/>
      <point x="258" y="61" type="curve" smooth="yes"/>
      <point x="233" y="61"/>
      <point x="204" y="63"/>
      <point x="165" y="67" type="curve"/>
      <point x="165" y="303" type="line"/>
      <point x="300" y="303" type="line"/>
      <point x="300" y="373" type="line"/>
      <point x="165" y="373" type="line"/>
      <point x="165" y="593" type="line"/>
      <point x="196" y="594"/>
      <point x="226" y="595"/>
      <point x="258" y="595" type="curve" smooth="yes"/>
    </contour>
  </outline>
</glyph>
<glyph name="multiply" format="1">
  <advance width="390"/>
  <unicode hex="00D7"/>
  <outline>
    <contour>
      <point x="196" y="352" type="line"/>
      <point x="88" y="460" type="line"/>
      <point x="35" y="406" type="line"/>
      <point x="142" y="298" type="line"/>
      <point x="37" y="193" type="line"/>
      <point x="87" y="143" type="line"/>
      <point x="192" y="248" type="line"/>
      <point x="300" y="141" type="line"/>
      <point x="354" y="194" type="line"/>
      <point x="246" y="302" type="line"/>
      <point x="352" y="408" type="line"/>
      <point x="302" y="458" type="line"/>
    </contour>
  </outline>
</glyph>
<glyph name="Oslash" format="1">
  <advance width="576"/>
  <unicode hex="00D8"/>
  <outline>
    <contour>
      <point x="456" y="705" type="line"/>
      <point x="418" y="638" type="line"/>
      <point x="385" y="657"/>
      <point x="342" y="667"/>
      <point x="288" y="667" type="curve" smooth="yes"/>
      <point x="133" y="667"/>
      <point x="70" y="584"/>
      <point x="70" y="452" type="curve" smooth="yes"/>
      <point x="70" y="203" type="line" smooth="yes"/>
      <point x="70" y="149"/>
      <point x="80" y="103"/>
      <point x="103" y="68" type="curve"/>
      <point x="35" y="-50" type="line"/>
      <point x="120" y="-50" type="line"/>
      <point x="159" y="16" type="line"/>
      <point x="192" y="-2"/>
      <point x="234" y="-12"/>
      <point x="288" y="-12" type="curve" smooth="yes"/>
      <point x="443" y="-12"/>
      <point x="506" y="71"/>
      <point x="506" y="203" type="curve" smooth="yes"/>
      <point x="506" y="452" type="line" smooth="yes"/>
      <point x="506" y="505"/>
      <point x="496" y="550"/>
      <point x="474" y="585" type="curve"/>
      <point x="541" y="705" type="line"/>
    </contour>
    <contour>
      <point x="420" y="486"/>
      <point x="421" y="474"/>
      <point x="421" y="461" type="curve"/>
      <point x="421" y="194" type="line" smooth="yes"/>
      <point x="421" y="109"/>
      <point x="376" y="63"/>
      <point x="288" y="63" type="curve" smooth="yes"/>
      <point x="248" y="63"/>
      <point x="216" y="72"/>
      <point x="194" y="91" type="curve"/>
      <point x="418" y="497" type="line"/>
    </contour>
    <contour>
      <point x="329" y="592"/>
      <point x="361" y="582"/>
      <point x="383" y="562" type="curve"/>
      <point x="158" y="155" type="line"/>
      <point x="156" y="167"/>
      <point x="155" y="180"/>
      <point x="155" y="194" type="curve" smooth="yes"/>
      <point x="155" y="462" type="line" smooth="yes"/>
      <point x="155" y="546"/>
      <point x="199" y="592"/>
      <point x="288" y="592" type="curve" smooth="yes"/>
    </contour>
    <contour>
      <point x="285" y="655" type="move" name="top"/>
    </contour>
  </outline>
</glyph>
<glyph name="Thorn" format="1">
  <advance width="499"/>
  <unicode hex="00DE"/>
  <outline>
    <contour>
      <point x="75" y="655" type="line"/>
      <point x="75" y="0" type="line"/>
      <point x="160" y="0" type="line"/>
      <point x="160" y="146" type="line"/>
      <point x="198" y="140"/>
      <point x="227" y="138"/>
      <point x="256" y="138" type="curve" smooth="yes"/>
      <point x="408" y="138"/>
      <point x="479" y="212"/>
      <point x="479" y="333" type="curve" smooth="yes"/>
      <point x="479" y="357" type="line" smooth="yes"/>
      <point x="479" y="471"/>
      <point x="407" y="539"/>
      <point x="248" y="539" type="curve" smooth="yes"/>
      <point x="224" y="539"/>
      <point x="192" y="537"/>
      <point x="160" y="533" type="curve"/>
      <point x="160" y="655" type="line"/>
    </contour>
    <contour>
      <point x="350" y="468"/>
      <point x="394" y="428"/>
      <point x="394" y="354" type="curve" smooth="yes"/>
      <point x="394" y="337" type="line" smooth="yes"/>
      <point x="394" y="253"/>
      <point x="346" y="211"/>
      <point x="252" y="211" type="curve" smooth="yes"/>
      <point x="228" y="211"/>
      <point x="205" y="213"/>
      <point x="160" y="219" type="curve"/>
      <point x="160" y="463" type="line"/>
      <point x="181" y="465"/>
      <point x="202" y="468"/>
      <point x="246" y="468" type="curve" smooth="yes"/>
    </contour>
  </outline>
</glyph>
<glyph name="germandbls" format="1">
  <advance width="483"/>
  <unicode hex="00DF"/>
  <outline>
    <contour>
      <point x="115" y="695"/>
      <point x="70" y="646"/>
      <point x="70" y="534" type="curve" smooth="yes"/>
      <point x="70" y="0" type="line"/>
      <point x="155" y="0" type="line"/>
      <point x="155" y="544" type="line" smooth="yes"/>
      <point x="155" y="602"/>
      <point x="175" y="623"/>
      <point x="226" y="623" type="curve" smooth="yes"/>
      <point x="276" y="623"/>
      <point x="301" y="601"/>
      <point x="301" y="566" type="curve" smooth="yes"/>
      <point x="301" y="538" type="line" smooth="yes"/>
      <point x="301" y="468"/>
      <point x="218" y="461"/>
      <point x="218" y="376" type="curve" smooth="yes"/>
      <point x="218" y="357" type="line" smooth="yes"/>
      <point x="218" y="304"/>
      <point x="233" y="277"/>
      <point x="283" y="249" type="curve" smooth="yes"/>
      <point x="331" y="222" type="line" smooth="yes"/>
      <point x="359" y="206"/>
      <point x="369" y="190"/>
      <point x="369" y="160" type="curve" smooth="yes"/>
      <point x="369" y="129" type="line" smooth="yes"/>
      <point x="369" y="82"/>
      <point x="351" y="63"/>
      <point x="316" y="63" type="curve" smooth="yes"/>
      <point x="291" y="63"/>
      <point x="255" y="70"/>
      <point x="220" y="78" type="curve"/>
      <point x="218" y="3" type="line"/>
      <point x="262" y="-6"/>
      <point x="295" y="-12"/>
      <point x="316" y="-12" type="curve" smooth="yes"/>
      <point x="420" y="-12"/>
      <point x="456" y="29"/>
      <point x="456" y="137" type="curve" smooth="yes"/>
      <point x="456" y="170" type="line" smooth="yes"/>
      <point x="456" y="226"/>
      <point x="431" y="264"/>
      <point x="369" y="295" type="curve"/>
      <point x="322" y="323" type="line" smooth="yes"/>
      <point x="305" y="333"/>
      <point x="300" y="344"/>
      <point x="300" y="364" type="curve" smooth="yes"/>
      <point x="300" y="379" type="line" smooth="yes"/>
      <point x="300" y="430"/>
      <point x="386" y="455"/>
      <point x="386" y="539" type="curve" smooth="yes"/>
      <point x="386" y="566" type="line" smooth="yes"/>
      <point x="386" y="642"/>
      <point x="327" y="695"/>
      <point x="232" y="695" type="curve" smooth="yes"/>
    </contour>
  </outline>
</glyph>
<glyph name="ccedilla" format="1">
  <advance width="390"/>
  <unicode hex="00E7"/>
  <outline>
    <contour>
      <point x="116" y="500"/>
      <point x="60" y="434"/>
      <point x="60" y="318" type="curve" smooth="yes"/>
      <point x="60" y="170" type="line" smooth="yes"/>
      <point x="60" y="74"/>
      <point x="98" y="13"/>
      <point x="180" y="-5" type="curve"/>
      <point x="163" y="-59" type="line"/>
      <point x="163" y="-80" type="line"/>
      <point x="193" y="-80" type="line" smooth="yes"/>
      <point x="216" y="-80"/>
      <point x="226" y="-86"/>
      <point x="227" y="-106" type="curve" smooth="yes"/>
      <point x="227" y="-119" type="line" smooth="yes"/>
      <point x="227" y="-133"/>
      <point x="215" y="-143"/>
      <point x="186" y="-143" type="curve" smooth="yes"/>
      <point x="176" y="-143"/>
      <point x="164" y="-141"/>
      <point x="150" y="-139" type="curve"/>
      <point x="150" y="-192" type="line"/>
      <point x="168" y="-195"/>
      <point x="183" y="-197"/>
      <point x="199" y="-197" type="curve" smooth="yes"/>
      <point x="263" y="-197"/>
      <point x="294" y="-173"/>
      <point x="294" y="-120" type="curve"/>
      <point x="294" y="-105" type="line" smooth="yes"/>
      <point x="294" y="-67"/>
      <point x="270" y="-41"/>
      <point x="242" y="-41" type="curve" smooth="yes"/>
      <point x="232" y="-41" type="line"/>
      <point x="241" y="-12" type="line"/>
      <point x="279" y="-12"/>
      <point x="299" y="-9"/>
      <point x="343" y="-1" type="curve"/>
      <point x="341" y="74" type="line"/>
      <point x="306" y="67"/>
      <point x="283" y="63"/>
      <point x="243" y="63" type="curve" smooth="yes"/>
      <point x="181" y="63"/>
      <point x="145" y="96"/>
      <point x="145" y="164" type="curve" smooth="yes"/>
      <point x="145" y="325" type="line" smooth="yes"/>
      <point x="145" y="389"/>
      <point x="178" y="425"/>
      <point x="243" y="425" type="curve" smooth="yes"/>
      <point x="283" y="425"/>
      <point x="306" y="421"/>
      <point x="341" y="414" type="curve"/>
      <point x="343" y="489" type="line"/>
      <point x="299" y="497"/>
      <point x="279" y="500"/>
      <point x="243" y="500" type="curve" smooth="yes"/>
    </contour>
  </outline>
</glyph>
<glyph name="oslash" format="1">
  <advance width="472"/>
  <unicode hex="00F8"/>
  <outline>
    <contour>
      <point x="388" y="538" type="line"/>
      <point x="344" y="472" type="line"/>
      <point x="317" y="490"/>
      <point x="281" y="500"/>
      <point x="236" y="500" type="curve" smooth="yes"/>
      <point x="114" y="500"/>
      <point x="60" y="431"/>
      <point x="60" y="318" type="curve" smooth="yes"/>
      <point x="60" y="170" type="line" smooth="yes"/>
      <point x="60" y="132"/>
      <point x="66" y="99"/>
      <point x="78" y="72" type="curve"/>
      <point x="-4" y="-51" type="line"/>
      <point x="84" y="-51" type="line"/>
      <point x="128" y="15" type="line"/>
      <point x="155" y="-2"/>
      <point x="191" y="-12"/>
      <point x="236" y="-12" type="curve" smooth="yes"/>
      <point x="358" y="-12"/>
      <point x="412" y="57"/>
      <point x="412" y="170" type="curve" smooth="yes"/>
      <point x="412" y="318" type="line" smooth="yes"/>
      <point x="412" y="355"/>
      <point x="406" y="387"/>
      <point x="394" y="414" type="curve"/>
      <point x="476" y="538" type="line"/>
    </contour>
    <contour>
      <point x="327" y="323"/>
      <point x="327" y="319"/>
      <point x="327" y="316" type="curve"/>
      <point x="327" y="163" type="line" smooth="yes"/>
      <point x="327" y="95"/>
      <point x="293" y="59"/>
      <point x="236" y="59" type="curve" smooth="yes"/>
      <point x="206" y="59"/>
      <point x="183" y="68"/>
      <point x="167" y="87" type="curve"/>
      <point x="327" y="326" type="line"/>
    </contour>
    <contour>
      <point x="266" y="429"/>
      <point x="290" y="419"/>
      <point x="305" y="400" type="curve"/>
      <point x="145" y="158" type="line"/>
      <point x="145" y="161"/>
      <point x="145" y="165"/>
      <point x="145" y="168" type="curve"/>
      <point x="145" y="325" type="line" smooth="yes"/>
      <point x="145" y="393"/>
      <point x="179" y="429"/>
      <point x="236" y="429" type="curve" smooth="yes"/>
    </contour>
    <contour>
      <point x="236" y="488" type="move" name="top"/>
    </contour>
  </outline>
</glyph>
<glyph name="Aogonek" format="1">
  <advance width="532"/>
  <unicode hex="0104"/>
  <outline>
    <contour>
      <point x="213" y="655" type="line"/>
      <point x="13" y="0" type="line"/>
      <point x="100" y="0" type="line"/>
      <point x="143" y="152" type="line"/>
      <point x="384" y="152" type="line"/>
      <point x="427" y="0" type="line"/>
      <point x="391" y="-25"/>
      <point x="369" y="-65"/>
      <point x="369" y="-103" type="curve" smooth="yes"/>
      <point x="369" y="-116" type="line" smooth="yes"/>
      <point x="369" y="-164"/>
      <point x="400" y="-197"/>
      <point x="468" y="-197" type="curve" smooth="yes"/>
      <point x="483" y="-197"/>
      <point x="499" y="-196"/>
      <point x="516" y="-192" type="curve"/>
      <point x="516" y="-131" type="line"/>
      <point x="504" y="-133"/>
      <point x="492" y="-134"/>
      <point x="483" y="-134" type="curve" smooth="yes"/>
      <point x="453" y="-134"/>
      <point x="441" y="-123"/>
      <point x="441" y="-97" type="curve" smooth="yes"/>
      <point x="441" y="-87" type="line" smooth="yes"/>
      <point x="441" y="-53"/>
      <point x="461" y="-19"/>
      <point x="497" y="0" type="curve"/>
      <point x="519" y="0" type="line"/>
      <point x="318" y="655" type="line"/>
    </contour>
    <contour>
      <point x="362" y="228" type="line"/>
      <point x="164" y="228" type="line"/>
      <point x="264" y="577" type="line"/>
    </contour>
  </outline>
</glyph>
<glyph name="Eogonek" format="1">
  <advance width="485"/>
  <unicode hex="0118"/>
  <outline>
    <contour>
      <point x="75" y="655" type="line"/>
      <point x="75" y="0" type="line"/>
      <point x="290" y="0" type="line"/>
      <point x="255" y="-25"/>
      <point x="233" y="-65"/>
      <point x="233" y="-103" type="curve" smooth="yes"/>
      <point x="233" y="-116" type="line" smooth="yes"/>
      <point x="233" y="-164"/>
      <point x="264" y="-197"/>
      <point x="332" y="-197" type="curve" smooth="yes"/>
      <point x="347" y="-197"/>
      <point x="363" y="-196"/>
      <point x="380" y="-192" type="curve"/>
      <point x="380" y="-131" type="line"/>
      <point x="368" y="-133"/>
      <point x="356" y="-134"/>
      <point x="347" y="-134" type="curve" smooth="yes"/>
      <point x="317" y="-134"/>
      <point x="305" y="-123"/>
      <point x="305" y="-97" type="curve" smooth="yes"/>
      <point x="305" y="-87" type="line" smooth="yes"/>
      <point x="305" y="-53"/>
      <point x="325" y="-19"/>
      <point x="361" y="0" type="curve"/>
      <point x="420" y="0" type="line"/>
      <point x="420" y="77" type="line"/>
      <point x="160" y="77" type="line"/>
      <point x="160" y="295" type="line"/>
      <point x="400" y="295" type="line"/>
      <point x="400" y="371" type="line"/>
      <point x="160" y="371" type="line"/>
      <point x="160" y="578" type="line"/>
      <point x="420" y="578" type="line"/>
      <point x="420" y="655" type="line"/>
    </contour>
  </outline>
</glyph>
<glyph name="Lslash" format="1">
  <advance width="455"/>
  <unicode hex="0141"/>
  <outline>
    <contour>
      <point x="80" y="655" type="line"/>
      <point x="80" y="363" type="line"/>
      <point x="10" y="344" type="line"/>
      <point x="10" y="268" type="line"/>
      <point x="80" y="287" type="line"/>
      <point x="80" y="0" type="line"/>
      <point x="425" y="0" type="line"/>
      <point x="425" y="75" type="line"/>
      <point x="165" y="75" type="line"/>
      <point x="165" y="311" type="line"/>
      <point x="295" y="348" type="line"/>
      <point x="295" y="424" type="line"/>
      <point x="165" y="387" type="line"/>
      <point x="165" y="655" type="line"/>
    </contour>
  </outline>
</glyph>
<glyph name="lslash" format="1">
  <advance width="235"/>
  <unicode hex="0142"/>
  <outline>
    <contour>
      <point x="75" y="683" type="line"/>
      <point x="75" y="425" type="line"/>
      <point x="-15" y="398" type="line"/>
      <point x="-15" y="328" type="line"/>
      <point x="75" y="355" type="line"/>
      <point x="75" y="0" type="line"/>
      <point x="160" y="0" type="line"/>
      <point x="160" y="380" type="line"/>
      <point x="250" y="408" type="line"/>
      <point x="250" y="478" type="line"/>
      <point x="160" y="450" type="line"/>
      <point x="160" y="683" type="line"/>
    </contour>
  </outline>
</glyph>
<glyph name="oe" format="1">
  <advance width="718"/>
  <unicode hex="0153"/>
  <outline>
    <contour>
      <point x="439" y="500"/>
      <point x="396" y="479"/>
      <point x="368" y="447" type="curve"/>
      <point x="340" y="479"/>
      <point x="297" y="500"/>
      <point x="236" y="500" type="curve" smooth="yes"/>
      <point x="113" y="500"/>
      <point x="60" y="430"/>
      <point x="60" y="318" type="curve" smooth="yes"/>
      <point x="60" y="170" type="line" smooth="yes"/>
      <point x="60" y="58"/>
      <point x="113" y="-12"/>
      <point x="236" y="-12" type="curve" smooth="yes"/>
      <point x="297" y="-12"/>
      <point x="340" y="8"/>
      <point x="368" y="40" type="curve"/>
      <point x="397" y="8"/>
      <point x="444" y="-12"/>
      <point x="516" y="-12" type="curve" smooth="yes"/>
      <point x="554" y="-12"/>
      <point x="606" y="-3"/>
      <point x="650" y="5" type="curve"/>
      <point x="648" y="79" type="line"/>
      <point x="613" y="72"/>
      <point x="559" y="63"/>
      <point x="516" y="63" type="curve" smooth="yes"/>
      <point x="445" y="63"/>
      <point x="412" y="92"/>
      <point x="412" y="159" type="curve" smooth="yes"/>
      <point x="412" y="218" type="line"/>
      <point x="673" y="218" type="line"/>
      <point x="673" y="321" type="line" smooth="yes"/>
      <point x="673" y="434"/>
      <point x="615" y="500"/>
      <point x="500" y="500" type="curve" smooth="yes"/>
    </contour>
    <contour>
      <point x="293" y="429"/>
      <point x="327" y="394"/>
      <point x="327" y="326" type="curve" smooth="yes"/>
      <point x="327" y="163" type="line" smooth="yes"/>
      <point x="327" y="95"/>
      <point x="293" y="59"/>
      <point x="236" y="59" type="curve" smooth="yes"/>
      <point x="179" y="59"/>
      <point x="145" y="95"/>
      <point x="145" y="163" type="curve" smooth="yes"/>
      <point x="145" y="325" type="line" smooth="yes"/>
      <point x="145" y="393"/>
      <point x="179" y="429"/>
      <point x="236" y="429" type="curve" smooth="yes"/>
    </contour>
    <contour>
      <point x="554" y="429"/>
      <point x="588" y="395"/>
      <point x="588" y="331" type="curve" smooth="yes"/>
      <point x="588" y="288" type="line"/>
      <point x="412" y="288" type="line"/>
      <point x="412" y="332" type="line" smooth="yes"/>
      <point x="412" y="396"/>
      <point x="446" y="429"/>
      <point x="500" y="429" type="curve" smooth="yes"/>
    </contour>
  </outline>
</glyph>
<glyph name="scedilla" format="1">
  <advance width="382"/>
  <unicode hex="015F"/>
  <outline>
    <contour>
      <point x="92" y="500"/>
      <point x="43" y="452"/>
      <point x="40" y="363" type="curve" smooth="yes"/>
      <point x="40" y="349" type="line" smooth="yes"/>
      <point x="40" y="300"/>
      <point x="66" y="263"/>
      <point x="125" y="236" type="curve" smooth="yes"/>
      <point x="222" y="193" type="line" smooth="yes"/>
      <point x="252" y="180"/>
      <point x="263" y="162"/>
      <point x="263" y="131" type="curve" smooth="yes"/>
      <point x="263" y="121" type="line" smooth="yes"/>
      <point x="263" y="81"/>
      <point x="243" y="63"/>
      <point x="176" y="63" type="curve" smooth="yes"/>
      <point x="143" y="63"/>
      <point x="94" y="73"/>
      <point x="53" y="85" type="curve"/>
      <point x="49" y="9" type="line"/>
      <point x="92" y="-2"/>
      <point x="131" y="-10"/>
      <point x="165" y="-12" type="curve"/>
      <point x="150" y="-59" type="line"/>
      <point x="150" y="-80" type="line"/>
      <point x="180" y="-80" type="line" smooth="yes"/>
      <point x="203" y="-80"/>
      <point x="213" y="-86"/>
      <point x="214" y="-106" type="curve" smooth="yes"/>
      <point x="214" y="-119" type="line" smooth="yes"/>
      <point x="214" y="-133"/>
      <point x="202" y="-143"/>
      <point x="173" y="-143" type="curve" smooth="yes"/>
      <point x="163" y="-143"/>
      <point x="151" y="-141"/>
      <point x="137" y="-139" type="curve"/>
      <point x="137" y="-192" type="line"/>
      <point x="155" y="-195"/>
      <point x="170" y="-197"/>
      <point x="186" y="-197" type="curve" smooth="yes"/>
      <point x="250" y="-197"/>
      <point x="281" y="-173"/>
      <point x="281" y="-120" type="curve"/>
      <point x="281" y="-105" type="line" smooth="yes"/>
      <point x="281" y="-67"/>
      <point x="257" y="-41"/>
      <point x="229" y="-41" type="curve" smooth="yes"/>
      <point x="219" y="-41" type="line"/>
      <point x="229" y="-8" type="line"/>
      <point x="311" y="4"/>
      <point x="346" y="50"/>
      <point x="347" y="126" type="curve" smooth="yes"/>
      <point x="347" y="148" type="line" smooth="yes"/>
      <point x="347" y="198"/>
      <point x="320" y="238"/>
      <point x="262" y="265" type="curve" smooth="yes"/>
      <point x="168" y="309" type="line" smooth="yes"/>
      <point x="136" y="324"/>
      <point x="124" y="336"/>
      <point x="124" y="361" type="curve" smooth="yes"/>
      <point x="124" y="370" type="line" smooth="yes"/>
      <point x="124" y="406"/>
      <point x="150" y="428"/>
      <point x="214" y="428" type="curve" smooth="yes"/>
      <point x="243" y="428"/>
      <point x="274" y="424"/>
      <point x="309" y="416" type="curve"/>
      <point x="311" y="488" type="line"/>
      <point x="267" y="497"/>
      <point x="240" y="500"/>
      <point x="210" y="500" type="curve" smooth="yes"/>
    </contour>
  </outline>
</glyph>
<glyph name="Tcedilla" format="1">
  <advance width="525"/>
  <unicode hex="0162"/>
  <outline>
    <contour>
      <point x="30" y="655" type="line"/>
      <point x="30" y="578" type="line"/>
      <point x="220" y="578" type="line"/>
      <point x="220" y="12" type="line"/>
      <point x="198" y="-59" type="line"/>
      <point x="198" y="-80" type="line"/>
      <point x="228" y="-80" type="line" smooth="yes"/>
      <point x="251" y="-80"/>
      <point x="261" y="-86"/>
      <point x="262" y="-106" type="curve" smooth="yes"/>
      <point x="262" y="-119" type="line" smooth="yes"/>
      <point x="262" y="-133"/>
      <point x="250" y="-143"/>
      <point x="221" y="-143" type="curve" smooth="yes"/>
      <point x="211" y="-143"/>
      <point x="199" y="-141"/>
      <point x="185" y="-139" type="curve"/>
      <point x="185" y="-192" type="line"/>
      <point x="203" y="-195"/>
      <point x="218" y="-197"/>
      <point x="234" y="-197" type="curve" smooth="yes"/>
      <point x="298" y="-197"/>
      <point x="329" y="-173"/>
      <point x="329" y="-120" type="curve" smooth="yes"/>
      <point x="329" y="-105" type="line" smooth="yes"/>
      <point x="329" y="-67"/>
      <point x="305" y="-41"/>
      <point x="277" y="-41" type="curve" smooth="yes"/>
      <point x="267" y="-41" type="line"/>
      <point x="279" y="0" type="line"/>
      <point x="305" y="0" type="line"/>
      <point x="305" y="578" type="line"/>
      <point x="495" y="578" type="line"/>
      <point x="495" y="655" type="line"/>
    </contour>
  </outline>
</glyph>
<glyph name="tcedilla" format="1">
  <advance width="338"/>
  <unicode hex="0163"/>
  <outline>
    <contour>
      <point x="101" y="618" type="line"/>
      <point x="85" y="488" type="line"/>
      <point x="15" y="488" type="line"/>
      <point x="15" y="418" type="line"/>
      <point x="85" y="418" type="line"/>
      <point x="85" y="139" type="line" smooth="yes"/>
      <point x="85" y="65"/>
      <point x="108" y="21"/>
      <point x="156" y="1" type="curve"/>
      <point x="136" y="-59" type="line"/>
      <point x="136" y="-80" type="line"/>
      <point x="166" y="-80" type="line" smooth="yes"/>
      <point x="189" y="-80"/>
      <point x="199" y="-86"/>
      <point x="200" y="-106" type="curve" smooth="yes"/>
      <point x="200" y="-119" type="line" smooth="yes"/>
      <point x="200" y="-133"/>
      <point x="188" y="-143"/>
      <point x="159" y="-143" type="curve" smooth="yes"/>
      <point x="149" y="-143"/>
      <point x="137" y="-141"/>
      <point x="123" y="-139" type="curve"/>
      <point x="123" y="-192" type="line"/>
      <point x="141" y="-195"/>
      <point x="156" y="-197"/>
      <point x="172" y="-197" type="curve" smooth="yes"/>
      <point x="236" y="-197"/>
      <point x="267" y="-173"/>
      <point x="267" y="-120" type="curve" smooth="yes"/>
      <point x="267" y="-105" type="line" smooth="yes"/>
      <point x="267" y="-67"/>
      <point x="243" y="-41"/>
      <point x="215" y="-41" type="curve" smooth="yes"/>
      <point x="205" y="-41" type="line"/>
      <point x="214" y="-11" type="line"/>
      <point x="221" y="-12"/>
      <point x="229" y="-12"/>
      <point x="238" y="-12" type="curve" smooth="yes"/>
      <point x="268" y="-12"/>
      <point x="296" y="-6"/>
      <point x="318" y="0" type="curve"/>
      <point x="316" y="71" type="line"/>
      <point x="296" y="66"/>
      <point x="263" y="61"/>
      <point x="234" y="61" type="curve" smooth="yes"/>
      <point x="191" y="61"/>
      <point x="170" y="81"/>
      <point x="170" y="132" type="curve" smooth="yes"/>
      <point x="170" y="418" type="line"/>
      <point x="300" y="418" type="line"/>
      <point x="300" y="488" type="line"/>
      <point x="170" y="488" type="line"/>
      <point x="170" y="618" type="line"/>
    </contour>
  </outline>
</glyph>
<glyph name="Uogonek" format="1">
  <advance width="576"/>
  <unicode hex="0172"/>
  <outline>
    <contour>
      <point x="416" y="655" type="line"/>
      <point x="416" y="194" type="line" smooth="yes"/>
      <point x="416" y="107"/>
      <point x="369" y="63"/>
      <point x="288" y="63" type="curve" smooth="yes"/>
      <point x="207" y="63"/>
      <point x="160" y="107"/>
      <point x="160" y="194" type="curve" smooth="yes"/>
      <point x="160" y="655" type="line"/>
      <point x="75" y="655" type="line"/>
      <point x="75" y="205" type="line" smooth="yes"/>
      <point x="75" y="63"/>
      <point x="145" y="-12"/>
      <point x="294" y="-12" type="curve"/>
      <point x="267" y="-37"/>
      <point x="251" y="-71"/>
      <point x="251" y="-103" type="curve" smooth="yes"/>
      <point x="251" y="-116" type="line" smooth="yes"/>
      <point x="251" y="-164"/>
      <point x="282" y="-197"/>
      <point x="350" y="-197" type="curve" smooth="yes"/>
      <point x="365" y="-197"/>
      <point x="381" y="-196"/>
      <point x="398" y="-192" type="curve"/>
      <point x="398" y="-131" type="line"/>
      <point x="386" y="-133"/>
      <point x="374" y="-134"/>
      <point x="365" y="-134" type="curve" smooth="yes"/>
      <point x="335" y="-134"/>
      <point x="323" y="-123"/>
      <point x="323" y="-97" type="curve" smooth="yes"/>
      <point x="323" y="-87" type="line" smooth="yes"/>
      <point x="323" y="-49"/>
      <point x="350" y="-8"/>
      <point x="394" y="9" type="curve" smooth="yes"/>
      <point x="463" y="36"/>
      <point x="501" y="107"/>
      <point x="501" y="207" type="curve" smooth="yes"/>
      <point x="501" y="655" type="line"/>
    </contour>
  </outline>
</glyph>
<glyph name="circumflex" format="1">
  <advance width="320"/>
  <unicode hex="02C6"/>
  <outline>
    <contour>
      <point x="30" y="616" type="line"/>
      <point x="30" y="546" type="line"/>
      <point x="160" y="611" type="line"/>
      <point x="290" y="546" type="line"/>
      <point x="290" y="616" type="line"/>
      <point x="160" y="690" type="line"/>
    </contour>
    <contour>
      <point x="160" y="488" type="move" name="_top"/>
    </contour>
  </outline>
</glyph>
<glyph name="ring" format="1">
  <advance width="282"/>
  <unicode hex="02DA"/>
  <outline>
    <contour>
      <point x="73" y="723"/>
      <point x="30" y="689"/>
      <point x="30" y="627" type="curve" smooth="yes"/>
      <point x="30" y="565"/>
      <point x="74" y="531"/>
      <point x="141" y="531" type="curve" smooth="yes"/>
      <point x="209" y="531"/>
      <point x="252" y="565"/>
      <point x="252" y="627" type="curve" smooth="yes"/>
      <point x="252" y="690"/>
      <point x="208" y="723"/>
      <point x="141" y="723" type="curve" smooth="yes"/>
    </contour>
    <contour>
      <point x="178" y="673"/>
      <point x="192" y="654"/>
      <point x="192" y="627" type="curve" smooth="yes"/>
      <point x="192" y="600"/>
      <point x="178" y="581"/>
      <point x="141" y="581" type="curve" smooth="yes"/>
      <point x="104" y="581"/>
      <point x="90" y="600"/>
      <point x="90" y="627" type="curve" smooth="yes"/>
      <point x="90" y="654"/>
      <point x="104" y="673"/>
      <point x="141" y="673" type="curve" smooth="yes"/>
    </contour>
    <contour>
      <point x="141" y="488" type="move" name="_top"/>
    </contour>
  </outline>
</glyph>
<glyph name="ogonek" format="1">
  <advance width="207"/>
  <unicode hex="02DB"/>
  <outline>
    <contour>
      <point x="74" y="9"/>
      <point x="30" y="-50"/>
      <point x="30" y="-103" type="curve" smooth="yes"/>
      <point x="30" y="-116" type="line" smooth="yes"/>
      <point x="30" y="-164"/>
      <point x="61" y="-197"/>
      <point x="129" y="-197" type="curve" smooth="yes"/>
      <point x="144" y="-197"/>
      <point x="160" y="-196"/>
      <point x="177" y="-192" type="curve"/>
      <point x="177" y="-131" type="line"/>
      <point x="165" y="-133"/>
      <point x="153" y="-134"/>
      <point x="144" y="-134" type="curve" smooth="yes"/>
      <point x="114" y="-134"/>
      <point x="102" y="-123"/>
      <point x="102" y="-97" type="curve" smooth="yes"/>
      <point x="102" y="-87" type="line" smooth="yes"/>
      <point x="102" y="-49"/>
      <point x="128" y="-10"/>
      <point x="174" y="7" type="curve"/>
      <point x="139" y="22" type="line"/>
    </contour>
    <contour>
      <point x="177" y="10" type="move" name="_ogonek"/>
    </contour>
  </outline>
</glyph>
<glyph name="tilde" format="1">
  <advance width="320"/>
  <unicode hex="02DC"/>
  <outline>
    <contour>
      <point x="290" y="685"/>
      <point x="245" y="660"/>
      <point x="212" y="660" type="curve" smooth="yes"/>
      <point x="178" y="660"/>
      <point x="160" y="685"/>
      <point x="110" y="685" type="curve" smooth="yes"/>
      <point x="64" y="685"/>
      <point x="30" y="655"/>
      <point x="30" y="655" type="curve"/>
      <point x="30" y="585" type="line"/>
      <point x="30" y="585"/>
      <point x="75" y="610"/>
      <point x="108" y="610" type="curve" smooth="yes"/>
      <point x="145" y="610"/>
      <point x="170" y="585"/>
      <point x="210" y="585" type="curve" smooth="yes"/>
      <point x="256" y="585"/>
      <point x="290" y="615"/>
      <point x="290" y="615" type="curve"/>
      <point x="290" y="685" type="line"/>
    </contour>
    <contour>
      <point x="160" y="488" type="move" name="_top"/>
    </contour>
  </outline>
</glyph>
<glyph name="commaturnedabove" format="1">
  <advance width="153"/>
  <unicode hex="0312"/>
  <outline>
    <contour>
      <point x="60" y="734" type="line"/>
      <point x="38" y="668" type="line" smooth="yes"/>
      <point x="33" y="652"/>
      <point x="30" y="639"/>
      <point x="30" y="621" type="curve" smooth="yes"/>
      <point x="30" y="595" type="line" smooth="yes"/>
      <point x="30" y="574"/>
      <point x="44" y="559"/>
      <point x="79" y="559" type="curve" smooth="yes"/>
      <point x="106" y="559"/>
      <point x="123" y="574"/>
      <point x="123" y="595" type="curve" smooth="yes"/>
      <point x="123" y="620" type="line" smooth="yes"/>
      <point x="123" y="641"/>
      <point x="115" y="651"/>
      <point x="94" y="658" type="curve"/>
      <point x="111" y="734" type="line"/>
    </contour>
    <contour>
      <point x="77" y="488" type="move" name="_top"/>
    </contour>
  </outline>
</glyph>
<glyph name="pi" format="1">
  <advance width="534"/>
  <unicode hex="03C0"/>
  <outline>
    <contour>
      <point x="20" y="488" type="line"/>
      <point x="20" y="418" type="line"/>
      <point x="90" y="418" type="line"/>
      <point x="90" y="0" type="line"/>
      <point x="175" y="0" type="line"/>
      <point x="175" y="418" type="line"/>
      <point x="351" y="418" type="line"/>
      <point x="351" y="139" type="line" smooth="yes"/>
      <point x="351" y="29"/>
      <point x="388" y="-12"/>
      <point x="477" y="-12" type="curve" smooth="yes"/>
      <point x="490" y="-12"/>
      <point x="515" y="-9"/>
      <point x="524" y="-7" type="curve"/>
      <point x="524" y="61" type="line"/>
      <point x="514" y="60"/>
      <point x="491" y="58"/>
      <point x="473" y="58" type="curve" smooth="yes"/>
      <point x="450" y="58"/>
      <point x="436" y="70"/>
      <point x="436" y="117" type="curve" smooth="yes"/>
      <point x="436" y="418" type="line"/>
      <point x="506" y="418" type="line"/>
      <point x="506" y="488" type="line"/>
    </contour>
  </outline>
</glyph>
<glyph name="quoteleft" format="1">
  <advance width="217"/>
  <unicode hex="2018"/>
  <outline>
    <contour>
      <point x="92" y="696" type="line"/>
      <point x="62" y="607" type="line" smooth="yes"/>
      <point x="57" y="591"/>
      <point x="55" y="577"/>
      <point x="55" y="557" type="curve" smooth="yes"/>
      <point x="55" y="527" type="line" smooth="yes"/>
      <point x="55" y="498"/>
      <point x="74" y="483"/>
      <point x="109" y="483" type="curve" smooth="yes"/>
      <point x="143" y="483"/>
      <point x="162" y="498"/>
      <point x="162" y="527" type="curve" smooth="yes"/>
      <point x="162" y="555" type="line" smooth="yes"/>
      <point x="162" y="578"/>
      <point x="150" y="592"/>
      <point x="128" y="597" type="curve"/>
      <point x="151" y="696" type="line"/>
    </contour>
  </outline>
</glyph>
<glyph name="quotesinglbase" format="1">
  <advance width="217"/>
  <unicode hex="201A"/>
  <outline>
    <contour>
      <point x="74" y="105"/>
      <point x="55" y="90"/>
      <point x="55" y="61" type="curve" smooth="yes"/>
      <point x="55" y="33" type="line" smooth="yes"/>
      <point x="55" y="10"/>
      <point x="67" y="-4"/>
      <point x="89" y="-9" type="curve"/>
      <point x="66" y="-108" type="line"/>
      <point x="125" y="-108" type="line"/>
      <point x="155" y="-19" type="line" smooth="yes"/>
      <point x="160" y="-3"/>
      <point x="162" y="11"/>
      <point x="162" y="31" type="curve" smooth="yes"/>
      <point x="162" y="61" type="line" smooth="yes"/>
      <point x="162" y="90"/>
      <point x="143" y="105"/>
      <point x="108" y="105" type="curve" smooth="yes"/>
    </contour>
  </outline>
</glyph>
<glyph name="quotedblleft" format="1">
  <advance width="362"/>
  <unicode hex="201C"/>
  <outline>
    <contour>
      <point x="237" y="695" type="line"/>
      <point x="207" y="606" type="line" smooth="yes"/>
      <point x="202" y="590"/>
      <point x="200" y="576"/>
      <point x="200" y="556" type="curve" smooth="yes"/>
      <point x="200" y="526" type="line" smooth="yes"/>
      <point x="200" y="497"/>
      <point x="219" y="482"/>
      <point x="254" y="482" type="curve" smooth="yes"/>
      <point x="288" y="482"/>
      <point x="307" y="497"/>
      <point x="307" y="526" type="curve" smooth="yes"/>
      <point x="307" y="554" type="line" smooth="yes"/>
      <point x="307" y="577"/>
      <point x="295" y="591"/>
      <point x="273" y="596" type="curve"/>
      <point x="296" y="695" type="line"/>
    </contour>
    <contour>
      <point x="92" y="695" type="line"/>
      <point x="62" y="606" type="line" smooth="yes"/>
      <point x="57" y="590"/>
      <point x="55" y="576"/>
      <point x="55" y="556" type="curve" smooth="yes"/>
      <point x="55" y="526" type="line" smooth="yes"/>
      <point x="55" y="497"/>
      <point x="74" y="482"/>
      <point x="109" y="482" type="curve" smooth="yes"/>
      <point x="143" y="482"/>
      <point x="162" y="497"/>
      <point x="162" y="526" type="curve" smooth="yes"/>
      <point x="162" y="554" type="line" smooth="yes"/>
      <point x="162" y="577"/>
      <point x="150" y="591"/>
      <point x="128" y="596" type="curve"/>
      <point x="151" y="695" type="line"/>
    </contour>
  </outline>
</glyph>
<glyph name="quotedblbase" format="1">
  <advance width="362"/>
  <unicode hex="201E"/>
  <outline>
    <contour>
      <point x="219" y="105"/>
      <point x="200" y="90"/>
      <point x="200" y="61" type="curve" smooth="yes"/>
      <point x="200" y="33" type="line" smooth="yes"/>
      <point x="200" y="10"/>
      <point x="212" y="-4"/>
      <point x="234" y="-9" type="curve"/>
      <point x="211" y="-108" type="line"/>
      <point x="270" y="-108" type="line"/>
      <point x="300" y="-19" type="line" smooth="yes"/>
      <point x="305" y="-3"/>
      <point x="307" y="11"/>
      <point x="307" y="31" type="curve" smooth="yes"/>
      <point x="307" y="61" type="line" smooth="yes"/>
      <point x="307" y="90"/>
      <point x="288" y="105"/>
      <point x="253" y="105" type="curve" smooth="yes"/>
    </contour>
    <contour>
      <point x="74" y="105"/>
      <point x="55" y="90"/>
      <point x="55" y="61" type="curve" smooth="yes"/>
      <point x="55" y="33" type="line" smooth="yes"/>
      <point x="55" y="10"/>
      <point x="67" y="-4"/>
      <point x="89" y="-9" type="curve"/>
      <point x="66" y="-108" type="line"/>
      <point x="125" y="-108" type="line"/>
      <point x="155" y="-19" type="line" smooth="yes"/>
      <point x="160" y="-3"/>
      <point x="162" y="11"/>
      <point x="162" y="31" type="curve" smooth="yes"/>
      <point x="162" y="61" type="line" smooth="yes"/>
      <point x="162" y="90"/>
      <point x="143" y="105"/>
      <point x="108" y="105" type="curve" smooth="yes"/>
    </contour>
  </outline>
</glyph>
<glyph name="dagger" format="1">
  <advance width="419"/>
  <unicode hex="2020"/>
  <outline>
    <contour>
      <point x="167" y="655" type="line"/>
      <point x="167" y="488" type="line"/>
      <point x="15" y="488" type="line"/>
      <point x="15" y="408" type="line"/>
      <point x="167" y="408" type="line"/>
      <point x="167" y="0" type="line"/>
      <point x="252" y="0" type="line"/>
      <point x="252" y="408" type="line"/>
      <point x="404" y="408" type="line"/>
      <point x="404" y="488" type="line"/>
      <point x="252" y="488" type="line"/>
      <point x="252" y="655" type="line"/>
    </contour>
  </outline>
</glyph>
<glyph name="guilsinglright" format="1">
  <advance width="318"/>
  <unicode hex="203A"/>
  <outline>
    <contour>
      <point x="65" y="438" type="line"/>
      <point x="158" y="268" type="line"/>
      <point x="65" y="98" type="line"/>
      <point x="153" y="98" type="line"/>
      <point x="253" y="268" type="line"/>
      <point x="153" y="438" type="line"/>
    </contour>
  </outline>
</glyph>
<glyph name="Euro" format="1">
  <advance width="454"/>
  <unicode hex="20AC"/>
  <outline>
    <contour>
      <point x="149" y="613"/>
      <point x="93" y="546"/>
      <point x="93" y="411" type="curve" smooth="yes"/>
      <point x="93" y="396" type="line"/>
      <point x="31" y="396" type="line"/>
      <point x="16" y="326" type="line"/>
      <point x="93" y="326" type="line"/>
      <point x="93" y="264" type="line"/>
      <point x="25" y="264" type="line"/>
      <point x="10" y="194" type="line"/>
      <point x="93" y="194" type="line"/>
      <point x="93" y="190" type="line" smooth="yes"/>
      <point x="93" y="56"/>
      <point x="146" y="-12"/>
      <point x="291" y="-12" type="curve" smooth="yes"/>
      <point x="336" y="-12"/>
      <point x="385" y="-4"/>
      <point x="429" y="4" type="curve"/>
      <point x="427" y="79" type="line"/>
      <point x="392" y="72"/>
      <point x="340" y="63"/>
      <point x="291" y="63" type="curve" smooth="yes"/>
      <point x="212" y="63"/>
      <point x="178" y="98"/>
      <point x="178" y="183" type="curve" smooth="yes"/>
      <point x="178" y="194" type="line"/>
      <point x="345" y="194" type="line"/>
      <point x="360" y="264" type="line"/>
      <point x="178" y="264" type="line"/>
      <point x="178" y="326" type="line"/>
      <point x="372" y="326" type="line"/>
      <point x="387" y="396" type="line"/>
      <point x="178" y="396" type="line"/>
      <point x="178" y="419" type="line" smooth="yes"/>
      <point x="178" y="505"/>
      <point x="212" y="540"/>
      <point x="291" y="540" type="curve" smooth="yes"/>
      <point x="340" y="540"/>
      <point x="392" y="531"/>
      <point x="427" y="524" type="curve"/>
      <point x="429" y="597" type="line"/>
      <point x="385" y="605"/>
      <point x="336" y="613"/>
      <point x="291" y="613" type="curve" smooth="yes"/>
    </contour>
  </outline>
</glyph>
<glyph name="partialdiff" format="1">
  <advance width="461"/>
  <unicode hex="2202"/>
  <outline>
    <contour>
      <point x="95" y="631" type="line"/>
      <point x="219" y="631"/>
      <point x="316" y="543"/>
      <point x="316" y="386" type="curve" smooth="yes"/>
      <point x="316" y="361" type="line"/>
      <point x="278" y="415"/>
      <point x="233" y="439"/>
      <point x="188" y="439" type="curve" smooth="yes"/>
      <point x="106" y="439"/>
      <point x="55" y="383"/>
      <point x="55" y="272" type="curve" smooth="yes"/>
      <point x="55" y="157" type="line" smooth="yes"/>
      <point x="55" y="41"/>
      <point x="107" y="-12"/>
      <point x="228" y="-12" type="curve" smooth="yes"/>
      <point x="342" y="-12"/>
      <point x="401" y="53"/>
      <point x="401" y="170" type="curve" smooth="yes"/>
      <point x="401" y="340" type="line" smooth="yes"/>
      <point x="401" y="579"/>
      <point x="292" y="695"/>
      <point x="95" y="695" type="curve"/>
    </contour>
    <contour>
      <point x="241" y="363"/>
      <point x="283" y="336"/>
      <point x="316" y="281" type="curve"/>
      <point x="316" y="148" type="line" smooth="yes"/>
      <point x="316" y="90"/>
      <point x="288" y="59"/>
      <point x="228" y="59" type="curve" smooth="yes"/>
      <point x="171" y="59"/>
      <point x="140" y="87"/>
      <point x="140" y="148" type="curve" smooth="yes"/>
      <point x="140" y="260" type="line" smooth="yes"/>
      <point x="140" y="333"/>
      <point x="166" y="363"/>
      <point x="205" y="363" type="curve" smooth="yes"/>
    </contour>
  </outline>
</glyph>
<glyph name="uni2206" format="1">
  <advance width="530"/>
  <unicode hex="2206"/>
  <outline>
    <contour>
      <point x="214" y="655" type="line"/>
      <point x="24" y="55" type="line"/>
      <point x="24" y="0" type="line"/>
      <point x="506" y="0" type="line"/>
      <point x="506" y="57" type="line"/>
      <point x="315" y="655" type="line"/>
    </contour>
    <contour>
      <point x="409" y="76" type="line"/>
      <point x="115" y="76" type="line"/>
      <point x="265" y="577" type="line"/>
    </contour>
  </outline>
</glyph>
<glyph name="product" format="1">
  <advance width="575"/>
  <unicode hex="220F"/>
  <outline>
    <contour>
      <point x="-5" y="655" type="line"/>
      <point x="-5" y="575" type="line"/>
      <point x="85" y="575" type="line"/>
      <point x="85" y="-185" type="line"/>
      <point x="170" y="-185" type="line"/>
      <point x="170" y="575" type="line"/>
      <point x="405" y="575" type="line"/>
      <point x="405" y="-185" type="line"/>
      <point x="490" y="-185" type="line"/>
      <point x="490" y="575" type="line"/>
      <point x="580" y="575" type="line"/>
      <point x="580" y="655" type="line"/>
    </contour>
  </outline>
</glyph>
<glyph name="summation" format="1">
  <advance width="399"/>
  <unicode hex="2211"/>
  <outline>
    <contour>
      <point x="5" y="655" type="line"/>
      <point x="5" y="588" type="line"/>
      <point x="208" y="236" type="line"/>
      <point x="5" y="-118" type="line"/>
      <point x="5" y="-185" type="line"/>
      <point x="394" y="-185" type="line"/>
      <point x="394" y="-108" type="line"/>
      <point x="103" y="-108" type="line"/>
      <point x="295" y="217" type="line"/>
      <point x="295" y="256" type="line"/>
      <point x="106" y="578" type="line"/>
      <point x="394" y="578" type="line"/>
      <point x="394" y="655" type="line"/>
    </contour>
  </outline>
</glyph>
<glyph name="uni2219" format="1">
  <advance width="235"/>
  <unicode hex="2219"/>
  <outline>
    <contour>
      <point x="78" y="335"/>
      <point x="55" y="317"/>
      <point x="55" y="284" type="curve" smooth="yes"/>
      <point x="55" y="251" type="line" smooth="yes"/>
      <point x="55" y="218"/>
      <point x="78" y="200"/>
      <point x="117" y="200" type="curve" smooth="yes"/>
      <point x="157" y="200"/>
      <point x="180" y="218"/>
      <point x="180" y="251" type="curve" smooth="yes"/>
      <point x="180" y="284" type="line" smooth="yes"/>
      <point x="180" y="317"/>
      <point x="157" y="335"/>
      <point x="117" y="335" type="curve" smooth="yes"/>
    </contour>
  </outline>
</glyph>
<glyph name="infinity" format="1">
  <advance width="517"/>
  <unicode hex="221E"/>
  <outline>
    <contour>
      <point x="316" y="432"/>
      <point x="281" y="415"/>
      <point x="259" y="386" type="curve"/>
      <point x="237" y="415"/>
      <point x="201" y="432"/>
      <point x="153" y="432" type="curve" smooth="yes"/>
      <point x="56" y="432"/>
      <point x="10" y="382"/>
      <point x="10" y="302" type="curve" smooth="yes"/>
      <point x="10" y="291" type="line" smooth="yes"/>
      <point x="10" y="210"/>
      <point x="56" y="161"/>
      <point x="153" y="161" type="curve" smooth="yes"/>
      <point x="201" y="161"/>
      <point x="237" y="178"/>
      <point x="259" y="207" type="curve"/>
      <point x="281" y="178"/>
      <point x="316" y="161"/>
      <point x="364" y="161" type="curve" smooth="yes"/>
      <point x="461" y="161"/>
      <point x="507" y="211"/>
      <point x="507" y="291" type="curve"/>
      <point x="507" y="302" type="line" smooth="yes"/>
      <point x="507" y="383"/>
      <point x="461" y="432"/>
      <point x="364" y="432" type="curve" smooth="yes"/>
    </contour>
    <contour>
      <point x="197" y="362"/>
      <point x="216" y="340"/>
      <point x="216" y="302" type="curve" smooth="yes"/>
      <point x="216" y="291" type="line" smooth="yes"/>
      <point x="216" y="253"/>
      <point x="197" y="231"/>
      <point x="153" y="231" type="curve" smooth="yes"/>
      <point x="109" y="231"/>
      <point x="90" y="253"/>
      <point x="90" y="291" type="curve" smooth="yes"/>
      <point x="90" y="302" type="line" smooth="yes"/>
      <point x="90" y="340"/>
      <point x="109" y="362"/>
      <point x="153" y="362" type="curve" smooth="yes"/>
    </contour>
    <contour>
      <point x="408" y="362"/>
      <point x="427" y="340"/>
      <point x="427" y="302" type="curve" smooth="yes"/>
      <point x="427" y="291" type="line" smooth="yes"/>
      <point x="427" y="253"/>
      <point x="408" y="231"/>
      <point x="364" y="231" type="curve" smooth="yes"/>
      <point x="320" y="231"/>
      <point x="301" y="253"/>
      <point x="301" y="291" type="curve" smooth="yes"/>
      <point x="301" y="302" type="line" smooth="yes"/>
      <point x="301" y="340"/>
      <point x="320" y="362"/>
      <point x="364" y="362" type="curve" smooth="yes"/>
    </contour>
  </outline>
</glyph>
<glyph name="integral" format="1">
  <advance width="316"/>
  <unicode hex="222B"/>
  <outline>
    <contour>
      <point x="166" y="695"/>
      <point x="113" y="643"/>
      <point x="113" y="536" type="curve" smooth="yes"/>
      <point x="113" y="-45" type="line" smooth="yes"/>
      <point x="113" y="-103"/>
      <point x="86" y="-126"/>
      <point x="47" y="-126" type="curve" smooth="yes"/>
      <point x="23" y="-126"/>
      <point x="3" y="-124"/>
      <point x="-15" y="-121" type="curve"/>
      <point x="-15" y="-189" type="line"/>
      <point x="-2" y="-192"/>
      <point x="24" y="-196"/>
      <point x="48" y="-196" type="curve" smooth="yes"/>
      <point x="145" y="-196"/>
      <point x="198" y="-144"/>
      <point x="198" y="-37" type="curve" smooth="yes"/>
      <point x="198" y="544" type="line" smooth="yes"/>
      <point x="198" y="600"/>
      <point x="225" y="625"/>
      <point x="264" y="625" type="curve" smooth="yes"/>
      <point x="288" y="625"/>
      <point x="308" y="623"/>
      <point x="326" y="620" type="curve"/>
      <point x="326" y="688" type="line"/>
      <point x="313" y="691"/>
      <point x="287" y="695"/>
      <point x="263" y="695" type="curve" smooth="yes"/>
    </contour>
  </outline>
</glyph>
<glyph name="lessequal" format="1">
  <advance width="390"/>
  <unicode hex="2264"/>
  <outline>
    <contour>
      <point x="15" y="334" type="line"/>
      <point x="15" y="259" type="line"/>
      <point x="375" y="99" type="line"/>
      <point x="375" y="182" type="line"/>
      <point x="99" y="297" type="line"/>
      <point x="375" y="411" type="line"/>
      <point x="375" y="494" type="line"/>
    </contour>
    <contour>
      <point x="15" y="70" type="line"/>
      <point x="15" y="0" type="line"/>
      <point x="375" y="0" type="line"/>
      <point x="375" y="70" type="line"/>
    </contour>
  </outline>
</glyph>
<glyph name="fl" format="1">
  <advance width="509"/>
  <unicode hex="FB02"/>
  <outline>
    <contour>
      <point x="150" y="695"/>
      <point x="101" y="646"/>
      <point x="100" y="534" type="curve" smooth="yes"/>
      <point x="100" y="488" type="line"/>
      <point x="30" y="488" type="line"/>
      <point x="30" y="418" type="line"/>
      <point x="100" y="418" type="line"/>
      <point x="100" y="0" type="line"/>
      <point x="185" y="0" type="line"/>
      <point x="185" y="418" type="line"/>
      <point x="275" y="418" type="line"/>
      <point x="275" y="488" type="line"/>
      <point x="185" y="488" type="line"/>
      <point x="185" y="549" type="line" smooth="yes"/>
      <point x="185" y="601"/>
      <point x="209" y="625"/>
      <point x="259" y="625" type="curve" smooth="yes"/>
      <point x="290" y="625"/>
      <point x="325" y="618"/>
      <point x="354" y="611" type="curve"/>
      <point x="354" y="0" type="line"/>
      <point x="439" y="0" type="line"/>
      <point x="439" y="687" type="line"/>
      <point x="366" y="681" type="line"/>
      <point x="340" y="687"/>
      <point x="289" y="695"/>
      <point x="260" y="695" type="curve" smooth="yes"/>
    </contour>
  </outline>
</glyph>
<glyph name="breve.case" format="1">
  <advance width="340"/>
  <outline>
    <contour>
      <point x="310" y="830"/>
      <point x="239" y="777"/>
      <point x="170" y="777" type="curve" smooth="yes"/>
      <point x="100" y="777"/>
      <point x="30" y="830"/>
      <point x="30" y="830" type="curve"/>
      <point x="30" y="752" type="line"/>
      <point x="30" y="752"/>
      <point x="93" y="705"/>
      <point x="170" y="705" type="curve" smooth="yes"/>
      <point x="243" y="705"/>
      <point x="310" y="752"/>
      <point x="310" y="752" type="curve"/>
      <point x="310" y="830" type="line"/>
    </contour>
    <contour>
      <point x="170" y="655" type="move" name="_top"/>
    </contour>
  </outline>
</glyph>
<glyph name="caron.case" format="1">
  <advance width="340"/>
  <outline>
    <contour>
      <point x="170" y="792" type="line"/>
      <point x="30" y="841" type="line"/>
      <point x="30" y="773" type="line"/>
      <point x="170" y="712" type="line"/>
      <point x="310" y="773" type="line"/>
      <point x="310" y="841" type="line"/>
    </contour>
    <contour>
      <point x="170" y="655" type="move" name="_top"/>
    </contour>
  </outline>
</glyph>
<glyph name="dieresis.case" format="1">
  <advance width="332"/>
  <outline>
    <contour>
      <point x="218" y="824"/>
      <point x="197" y="809"/>
      <point x="197" y="781" type="curve" smooth="yes"/>
      <point x="197" y="752" type="line" smooth="yes"/>
      <point x="197" y="726"/>
      <point x="218" y="710"/>
      <point x="249" y="710" type="curve" smooth="yes"/>
      <point x="283" y="710"/>
      <point x="302" y="726"/>
      <point x="302" y="752" type="curve" smooth="yes"/>
      <point x="302" y="781" type="line" smooth="yes"/>
      <point x="302" y="809"/>
      <point x="283" y="824"/>
      <point x="249" y="824" type="curve" smooth="yes"/>
    </contour>
    <contour>
      <point x="50" y="824"/>
      <point x="30" y="809"/>
      <point x="30" y="781" type="curve" smooth="yes"/>
      <point x="30" y="752" type="line" smooth="yes"/>
      <point x="30" y="726"/>
      <point x="50" y="710"/>
      <point x="82" y="710" type="curve" smooth="yes"/>
      <point x="115" y="710"/>
      <point x="134" y="726"/>
      <point x="134" y="752" type="curve" smooth="yes"/>
      <point x="134" y="781" type="line" smooth="yes"/>
      <point x="134" y="809"/>
      <point x="115" y="824"/>
      <point x="82" y="824" type="curve" smooth="yes"/>
    </contour>
    <contour>
      <point x="166" y="655" type="move" name="_top"/>
    </contour>
  </outline>
</glyph>
<glyph name="dotaccent.case" format="1">
  <advance width="171"/>
  <outline>
    <contour>
      <point x="50" y="830"/>
      <point x="30" y="814"/>
      <point x="30" y="784" type="curve" smooth="yes"/>
      <point x="30" y="755" type="line" smooth="yes"/>
      <point x="30" y="726"/>
      <point x="50" y="710"/>
      <point x="85" y="710" type="curve" smooth="yes"/>
      <point x="121" y="710"/>
      <point x="141" y="726"/>
      <point x="141" y="755" type="curve" smooth="yes"/>
      <point x="141" y="784" type="line" smooth="yes"/>
      <point x="141" y="814"/>
      <point x="121" y="830"/>
      <point x="85" y="830" type="curve" smooth="yes"/>
    </contour>
    <contour>
      <point x="86" y="770" type="move" name="_center"/>
    </contour>
    <contour>
      <point x="86" y="655" type="move" name="_top"/>
    </contour>
  </outline>
</glyph>
<glyph name="grave.case" format="1">
  <advance width="219"/>
  <outline>
    <contour>
      <point x="30" y="829" type="line"/>
      <point x="115" y="710" type="line"/>
      <point x="189" y="710" type="line"/>
      <point x="123" y="829" type="line"/>
    </contour>
    <contour>
      <point x="145" y="655" type="move" name="_top"/>
    </contour>
  </outline>
</glyph>
<glyph name="hungarumlaut.case" format="1">
  <advance width="339"/>
  <outline>
    <contour>
      <point x="223" y="829" type="line"/>
      <point x="172" y="710" type="line"/>
      <point x="244" y="710" type="line"/>
      <point x="309" y="829" type="line"/>
    </contour>
    <contour>
      <point x="81" y="829" type="line"/>
      <point x="30" y="710" type="line"/>
      <point x="102" y="710" type="line"/>
      <point x="167" y="829" type="line"/>
    </contour>
    <contour>
      <point x="158" y="655" type="move" name="_top"/>
    </contour>
  </outline>
</glyph>
<glyph name="macron.case" format="1">
  <advance width="295"/>
  <outline>
    <contour>
      <point x="30" y="790" type="line"/>
      <point x="30" y="715" type="line"/>
      <point x="265" y="715" type="line"/>
      <point x="265" y="790" type="line"/>
    </contour>
    <contour>
      <point x="148" y="655" type="move" name="_top"/>
    </contour>
  </outline>
</glyph>
<glyph name="ring.case" format="1">
  <advance width="290"/>
  <outline>
    <contour>
      <point x="75" y="865"/>
      <point x="30" y="833"/>
      <point x="30" y="765" type="curve" smooth="yes"/>
      <point x="30" y="697"/>
      <point x="76" y="665"/>
      <point x="145" y="665" type="curve" smooth="yes"/>
      <point x="215" y="665"/>
      <point x="260" y="697"/>
      <point x="260" y="765" type="curve" smooth="yes"/>
      <point x="260" y="833"/>
      <point x="214" y="865"/>
      <point x="145" y="865" type="curve" smooth="yes"/>
    </contour>
    <contour>
      <point x="182" y="810"/>
      <point x="195" y="791"/>
      <point x="195" y="765" type="curve" smooth="yes"/>
      <point x="195" y="739"/>
      <point x="182" y="720"/>
      <point x="145" y="720" type="curve" smooth="yes"/>
      <point x="108" y="720"/>
      <point x="95" y="739"/>
      <point x="95" y="765" type="curve" smooth="yes"/>
      <point x="95" y="791"/>
      <point x="108" y="810"/>
      <point x="145" y="810" type="curve" smooth="yes"/>
    </contour>
    <contour>
      <point x="145" y="655" type="move" name="_top"/>
    </contour>
  </outline>
</glyph>
